<?xml version="1.0" encoding="utf-8"?>
<!-- Generator: Adobe Illustrator 26.0.2, SVG Export Plug-In . SVG Version: 6.00 Build 0)  -->
<svg version="1.1" id="Logotype_Editable_Text" xmlns="http://www.w3.org/2000/svg" xmlns:xlink="http://www.w3.org/1999/xlink"
	 x="0px" y="0px" viewBox="0 0 214.3 178.4" style="enable-background:new 0 0 214.3 178.4;" xml:space="preserve">
<style type="text/css">
	.st0{fill:#FFFFFF;}
	.st1{fill:#757575;}
	.st2{fill:#C8202F;}
</style>
<g>
	<g>
		<g>
			<path class="st0" d="M107.1,0C54.5,0,11.7,42.8,11.7,95.4c0,26.5,10.6,51.1,29.8,69.3l1,1l1.1-1c2.8-2.6,5.7-4.9,8.7-7.1
				c14.6,12.9,33.8,20.8,54.8,20.8s40.2-7.9,54.8-20.8c3,2.2,5.9,4.5,8.6,7.1l1.1,1l1.1-1c19.3-18.2,29.9-42.8,29.9-69.3
				C202.6,42.8,159.8,0,107.1,0L107.1,0z"/>
			<path class="st1" d="M171.6,161.5c-2.4-2.1-4.8-4.1-7.4-6c15.9-15.1,25.9-36.5,25.9-60.1c0-45.8-37.2-83-83-83s-83,37.2-83,83
				c0,23.6,9.9,45,25.8,60.1c-2.5,1.9-5,3.9-7.4,6C24.6,144,14.8,120.6,14.8,95.4c0-50.9,41.4-92.4,92.4-92.4s92.3,41.4,92.3,92.3
				C199.5,120.5,189.6,143.9,171.6,161.5L171.6,161.5L171.6,161.5z M94.8,151.9C94.8,151.9,94.8,151.9,94.8,151.9H118
				c4.5,0,8.1-3.5,8.3-8c0,0,0-0.1,0-0.1c0-0.1,0-0.1,0-0.1c0-0.1,0-0.1,0-0.1h0c0,0,0,0,0,0h0.9c1.4,0,7.3,1.4,7.3,8.1
				s-6.3,8-8.7,8h-31c-2.1,0-3.9-1.7-3.9-3.9S92.7,151.9,94.8,151.9L94.8,151.9L94.8,151.9z M112.7,135.3c-2.8,0.9-5,2.9-5.8,5.4
				c-0.3,0.8,0.2,1.7,1,1.9s1.7-0.2,1.9-1c0.7-2.3,3.3-3.9,6.3-3.9c4.4,0,7.1,2.2,7.1,5.8c-0.1,2.9-2.4,5.1-5.3,5.1H83.6
				c-2.3,0-4.2-1.9-4.2-4.2s1.9-4.2,4.2-4.2h3l0.1-1.5c0.2-2.8,2.5-5,5.3-5h5.2l0.3-1.1c0.9-3.4,4-5.7,7.5-5.7
				c4.3,0,7.8,3.5,7.8,7.8L112.7,135.3L112.7,135.3L112.7,135.3z M27.2,95.4c0-44.1,35.9-79.9,79.9-79.9S187,51.4,187,95.4
				c0,23-9.8,43.7-25.3,58.3c-11.1-7.6-23.7-12.8-37-15.2c-1.7-2.4-4.7-3.7-8.6-3.7c-0.1,0-0.2,0-0.4,0c0-6-4.9-10.8-10.8-10.8
				c-4.5,0-8.4,2.8-10.1,6.8h-2.9c-3.9,0-7.3,2.7-8.1,6.5h-0.2c-3,0-5.6,1.9-6.7,4.5c-8.6,2.8-16.8,6.9-24.3,12
				C37,139.1,27.2,118.4,27.2,95.4L27.2,95.4L27.2,95.4z M107.1,175.3c-20,0-38.2-7.4-52.2-19.5c6.7-4.5,13.9-8,21.4-10.6
				c0.3,3.7,3.4,6.7,7.2,6.7h5.5c-0.7,1.1-1.2,2.4-1.2,3.9c0,3.8,3.1,6.9,6.9,6.9h31c4.6,0,11.8-3,11.8-11.1c0-3.3-1.1-5.7-2.6-7.4
				c8.6,2.7,16.8,6.6,24.4,11.7C145.3,168,127.1,175.4,107.1,175.3L107.1,175.3L107.1,175.3z M107.1,0C54.5,0,11.7,42.8,11.7,95.4
				c0,26.5,10.6,51.1,29.8,69.3l1,1l1.1-1c2.8-2.6,5.7-4.9,8.7-7.1c14.6,12.9,33.8,20.8,54.8,20.8s40.2-7.9,54.8-20.8
				c3,2.2,5.9,4.5,8.6,7.1l1.1,1l1.1-1c19.3-18.2,29.9-42.8,29.9-69.3C202.6,42.8,159.8,0,107.1,0L107.1,0z"/>
			<path class="st2" d="M205.9,60.1H0V110c0,4.6,3.8,8.4,8.4,8.4h205.9V68.5C214.3,63.8,210.5,60.1,205.9,60.1
				C205.9,60.1,205.9,60.1,205.9,60.1z"/>
			<path class="st1" d="M171.6,160.2c-0.7,0-1.2-0.5-1.2-1.1s0.5-1.1,1.2-1.1s1.2,0.5,1.2,1.1S172.2,160.2,171.6,160.2 M171.6,158.3
				c-0.5,0-0.9,0.4-0.9,0.8s0.4,0.8,0.9,0.8s1-0.4,1-0.8S172.1,158.3,171.6,158.3 M172,159.2c0,0-0.1,0-0.1,0.1c0,0,0.1,0.1,0.3,0.4
				l0,0c-0.1,0.1-0.2,0.1-0.3,0c-0.2-0.3-0.3-0.3-0.3-0.3h-0.3v-0.1c0-0.1,0.1-0.2,0.2-0.2h0.1c0.1,0,0.2,0,0.2-0.1
				c0,0,0.1-0.1,0.1-0.1s0-0.1-0.3-0.1h-0.4v0.8c0,0.1-0.1,0.2-0.2,0.2h-0.1v-1c0-0.1,0.1-0.2,0.2-0.2h0.5c0.5,0,0.6,0.3,0.6,0.4
				C172.2,159,172.1,159.2,172,159.2"/>
		</g>
		<g>
			<path class="st2" d="M83,51.1c-3.5,0-6.3-2.5-6.3-5.7s2.8-5.7,6.3-5.7s6.3,2.5,6.3,5.7S86.5,51.1,83,51.1 M83,42
				c-2.2,0-4,1.5-4,3.4s1.8,3.4,4,3.4s4-1.5,4-3.4S85.2,42,83,42"/>
			<path class="st2" d="M105.4,51.1c-1.3,0-2.3-1-2.3-2.3V44c0-1.1-1-2-2.2-2s-2.2,0.9-2.2,2v7c-1.3,0-2.3-1-2.3-2.3V44
				c0-1.1-1-2-2.2-2s-2.2,0.9-2.2,2v4.7c0,1.3-1,2.3-2.3,2.3v-7c0-2.4,2-4.3,4.4-4.3c1.3,0,2.5,0.5,3.3,1.4c0.8-0.9,2-1.4,3.3-1.4
				c2.5,0,4.5,1.9,4.5,4.3L105.4,51.1L105.4,51.1L105.4,51.1z"/>
			<path class="st2" d="M112.9,51c-0.6,0-1.2,0-1.7-0.2c-1.2-0.3-1.9-1.6-1.6-2.8c0-0.1,0.1-0.3,0.1-0.4l0,0
				c0.6,0.7,1.7,1.1,3.1,1.1c2.1,0,3.7-1.5,3.7-3.3S115,42,112.9,42c-2,0-3.9,1.1-3.9,3.5v7.4c0,1.2-1,2.2-2.3,2.2v-9.6
				c0-3.3,2.6-5.8,6.2-5.8c1.6,0,3.1,0.6,4.2,1.6c1.2,1.1,1.8,2.5,1.8,4.1C118.9,48.6,116.2,51,112.9,51"/>
			<path class="st2" d="M129.2,37.5h-4.9v13.5h-0.1c-1.2,0-2.2-1-2.2-2.3V37.6h-4.9c-1.2,0-2.2-1-2.2-2.3h16.6
				C131.4,36.5,130.4,37.6,129.2,37.5"/>
			<path class="st2" d="M148.7,49.6l-1.2-2.6h-8.1l-1.2,2.7c-0.6,1.1-2.1,1.4-3.2,1.4l6.6-14.5c0.4-0.8,1-1.3,1.8-1.3
				s1.5,0.5,1.8,1.3l6.5,14.3C150.5,51,149.2,50.7,148.7,49.6 M143.7,37.6l-3.2,7.1h6.1l-3.3-7.2L143.7,37.6L143.7,37.6z"/>
			<path class="st2" d="M74.1,39.5c-1.2-1.3-3.1-2.2-5.1-2.2c-3.5,0-6.4,2.6-6.4,5.7s2.9,5.8,6.4,5.8c1.7,0,3.3-0.6,4.5-1.7
				c0.8-0.7,2.1-0.6,2.9,0c-0.6,1-1.4,1.8-2.5,2.4c-1.4,0.9-3.1,1.4-4.9,1.4c-4.8,0-8.7-3.6-8.7-8s3.9-8,8.7-8
				c3.4,0,6.5,1.9,7.9,4.7C76.1,40.4,74.9,40.4,74.1,39.5"/>
			<path class="st2" d="M152.6,50.2c-0.7,0-1.2-0.5-1.2-1.1s0.5-1.1,1.2-1.1s1.2,0.5,1.2,1.1S153.3,50.2,152.6,50.2 M152.6,48.3
				c-0.5,0-0.9,0.4-0.9,0.8s0.4,0.8,0.9,0.8s1-0.4,1-0.8S153.2,48.3,152.6,48.3 M153.1,49.2c0,0-0.1,0-0.1,0c0,0,0.1,0.1,0.3,0.4
				l0,0c-0.1,0.1-0.2,0.1-0.3,0c-0.2-0.3-0.3-0.3-0.3-0.3h-0.3v-0.1c0-0.1,0.1-0.2,0.2-0.2h0.1c0.1,0,0.2,0,0.2,0c0,0,0.1,0,0.1-0.1
				s0-0.1-0.3-0.1h-0.4v0.8c0,0.1-0.1,0.2-0.2,0.2H152v-1c0-0.1,0.1-0.2,0.2-0.2h0.5c0.5,0,0.6,0.3,0.6,0.4
				C153.3,49,153.2,49.1,153.1,49.2"/>
			<path class="st2" d="M132.1,35.3v13.6c0,1.2,1.1,2.2,2.3,2.2V37.5C134.4,36.3,133.4,35.3,132.1,35.3"/>
		</g>
	</g>
	<g>
		<path class="st0" d="M65.1,81.2c-1.1,0-2.1,0.2-3,0.6s-1.6,1-2.2,1.8s-1,1.7-1.4,2.8c-0.3,1.1-0.5,2.3-0.5,3.7
			c0,1.8,0.2,3.4,0.8,4.7c0.5,1.3,1.3,2.3,2.3,3c1,0.7,2.3,1.1,3.9,1.1c1,0,2.1-0.1,3-0.3c1-0.2,2-0.5,3-0.9v3.7c-1,0.4-2,0.7-3,0.9
			s-2.2,0.3-3.5,0.3c-2.5,0-4.6-0.5-6.2-1.6c-1.6-1-2.8-2.5-3.6-4.3s-1.2-4.1-1.2-6.6c0-1.8,0.3-3.5,0.8-5s1.2-2.8,2.2-3.9
			s2.2-2,3.6-2.6s3.1-0.9,4.9-0.9c1.2,0,2.4,0.1,3.6,0.4c1.2,0.3,2.3,0.7,3.3,1.2l-1.5,3.6c-0.9-0.4-1.8-0.7-2.7-1
			S66.1,81.2,65.1,81.2L65.1,81.2z"/>
		<path class="st0" d="M79.5,102.2h-4.3V76.3h4.3C79.5,76.3,79.5,102.1,79.5,102.2z"/>
		<path class="st0" d="M100.7,92.9c0,1.5-0.2,2.9-0.6,4.1s-1,2.2-1.8,3s-1.7,1.4-2.8,1.9c-1.1,0.4-2.3,0.6-3.7,0.6s-2.4-0.2-3.5-0.6
			c-1.1-0.4-2-1-2.8-1.9s-1.4-1.8-1.8-3s-0.7-2.5-0.7-4.1c0-2,0.3-3.8,1.1-5.2c0.7-1.4,1.7-2.5,3-3.2c1.3-0.7,2.9-1.1,4.7-1.1
			s3.2,0.4,4.5,1.1c1.3,0.7,2.3,1.8,3.1,3.2C100.3,89.1,100.7,90.9,100.7,92.9L100.7,92.9z M87.5,92.9c0,1.3,0.2,2.4,0.5,3.3
			c0.3,0.9,0.8,1.6,1.4,2.1c0.7,0.5,1.5,0.7,2.5,0.7s1.9-0.2,2.5-0.7c0.7-0.5,1.1-1.2,1.4-2.1s0.4-2,0.4-3.3s-0.2-2.4-0.5-3.3
			c-0.3-0.9-0.8-1.6-1.4-2s-1.5-0.7-2.5-0.7c-1.5,0-2.7,0.5-3.3,1.6S87.5,91,87.5,92.9L87.5,92.9z"/>
		<path class="st0" d="M120.7,83.7v18.4h-3.4l-0.6-2.4h-0.2c-0.4,0.6-0.9,1.2-1.5,1.6c-0.6,0.4-1.3,0.7-2,0.9
			c-0.7,0.2-1.5,0.3-2.2,0.3c-1.4,0-2.5-0.2-3.5-0.7c-1-0.5-1.8-1.2-2.3-2.2c-0.5-1-0.8-2.3-0.8-3.8v-12h4.3v11.2
			c0,1.4,0.3,2.4,0.8,3.1c0.5,0.7,1.4,1,2.6,1s2.1-0.2,2.7-0.7c0.7-0.5,1.1-1.2,1.4-2.1c0.3-0.9,0.4-2.1,0.4-3.4v-9L120.7,83.7
			L120.7,83.7z"/>
		<path class="st0" d="M131.5,102.5c-2.1,0-3.9-0.8-5.2-2.4s-2-4-2-7.1s0.7-5.5,2-7.2s3.1-2.4,5.3-2.4c0.9,0,1.7,0.1,2.4,0.4
			c0.7,0.2,1.3,0.6,1.8,1s0.9,0.9,1.3,1.4h0.2c-0.1-0.3-0.1-0.8-0.2-1.5c-0.1-0.7-0.1-1.3-0.1-1.8v-6.5h4.3v25.8h-3.3l-0.8-2.4H137
			c-0.3,0.5-0.8,1-1.3,1.4s-1.1,0.8-1.8,1C133.2,102.4,132.4,102.5,131.5,102.5L131.5,102.5z M132.8,99c1.6,0,2.7-0.4,3.4-1.4
			c0.7-0.9,1-2.3,1-4.1V93c0-2-0.3-3.5-0.9-4.6c-0.6-1-1.8-1.6-3.5-1.6c-1.3,0-2.3,0.5-3,1.6s-1.1,2.6-1.1,4.5s0.4,3.4,1.1,4.4
			S131.5,99,132.8,99L132.8,99z"/>
		<path class="st0" d="M154.5,88.6h6.6v3.2h-6.6v6.6h-3.2v-6.6h-6.5v-3.2h6.5v-6.7h3.2V88.6z"/>
	</g>
</g>
</svg>
