<svg width="36" height="40" viewBox="0 0 36 40" fill="none" xmlns="http://www.w3.org/2000/svg">
<path fill-rule="evenodd" clip-rule="evenodd" d="M35.3719 10V18.0492H25.4022V15.7565L35.3719 10Z" fill="black"/>
<path opacity="0.9" fill-rule="evenodd" clip-rule="evenodd" d="M35.3699 10.0001L25.4001 15.7566L18.0488 11.513V0L35.3699 10.0001Z" fill="black"/>
<path opacity="0.8" fill-rule="evenodd" clip-rule="evenodd" d="M18.0512 0V11.513L10.7022 15.7566L0.732422 10.0001L18.0512 0Z" fill="black"/>
<path opacity="0.7" fill-rule="evenodd" clip-rule="evenodd" d="M10.7004 15.7565V24.2434L0.730713 29.9994V10.0001L10.7004 15.7565Z" fill="black"/>
<path opacity="0.6" fill-rule="evenodd" clip-rule="evenodd" d="M18.0494 28.487V40L0.730713 29.9994L10.7004 24.2434L18.0494 28.487Z" fill="black"/>
<path opacity="0.5" fill-rule="evenodd" clip-rule="evenodd" d="M35.3699 29.9994L18.0488 40V28.4871L25.4001 24.2434L35.3699 29.9994Z" fill="black"/>
<path opacity="0.4" fill-rule="evenodd" clip-rule="evenodd" d="M35.372 21.9507V29.9994L25.4022 24.2434V21.9507H35.372Z" fill="black"/>
</svg>
