<svg width="47" height="25" viewBox="0 0 47 25" fill="none" xmlns="http://www.w3.org/2000/svg">
<path d="M31.9828 24.6968V22.5015L31.9397 22.5212C31.4502 22.7603 30.9175 22.8967 30.3712 22.9224C29.8064 22.9633 29.2459 22.7969 28.7929 22.454C28.4709 22.2029 28.2308 21.8601 28.1037 21.47C27.9654 21.0438 27.9498 20.5868 28.0586 20.152C28.1604 19.7073 28.4072 19.3102 28.7577 19.0276C29.071 18.7628 29.4528 18.5968 29.8582 18.5494C30.5739 18.4685 31.2972 18.6047 31.9358 18.9406L31.9828 18.9663V16.7591L31.8829 16.7314C31.2435 16.5272 30.5732 16.4389 29.9032 16.4706C29.2926 16.4839 28.6909 16.6224 28.135 16.8777C27.573 17.1385 27.0776 17.5238 26.6879 18.006C26.093 18.7637 25.7629 19.6985 25.7487 20.6651C25.7345 21.6317 26.0372 22.576 26.6096 23.3511C27.1872 24.0981 27.9979 24.6257 28.9104 24.845C29.8719 25.0822 30.8803 25.0466 31.8222 24.7423L31.9828 24.6968ZM10.4527 24.6968V22.5015L10.4096 22.5212C9.92009 22.7603 9.38747 22.8967 8.84114 22.9224C8.27592 22.9669 7.7142 22.8002 7.26285 22.454C6.94065 22.2035 6.70106 21.8604 6.57554 21.47C6.43668 21.044 6.42038 20.5869 6.52854 20.152C6.63036 19.7073 6.87514 19.3102 7.22761 19.0276C7.54091 18.7628 7.92276 18.5968 8.3281 18.5494C9.04378 18.4685 9.76711 18.6047 10.4057 18.9406L10.4527 18.9663V16.7591L10.3528 16.7314C9.71338 16.5272 9.04312 16.4389 8.37314 16.4706C7.76247 16.4839 7.16087 16.6224 6.60491 16.8777C6.04403 17.1392 5.54875 17.5248 5.15586 18.006C4.56196 18.7641 4.23224 19.6986 4.21773 20.6648C4.20322 21.6311 4.50472 22.5752 5.07558 23.3511C5.65157 24.0999 6.46423 24.6271 7.37839 24.845C8.33985 25.0822 9.34634 25.0466 10.2902 24.7423L10.4527 24.6968ZM18.1366 22.8749L18.1287 24.766L18.2658 24.7897C18.6966 24.8701 19.13 24.926 19.566 24.9577C19.9485 24.9945 20.3317 25.0025 20.7155 24.9814C21.0836 24.9537 21.4433 24.8852 21.7944 24.7759C22.2056 24.6573 22.5875 24.4538 22.9125 24.1732C23.206 23.9194 23.4304 23.5943 23.5646 23.2286C23.8001 22.6177 23.7952 21.9391 23.5509 21.3316C23.4226 21.0166 23.2227 20.7364 22.9674 20.5136C22.717 20.2905 22.4256 20.1192 22.1097 20.0097L20.6959 19.4801C20.5282 19.4056 20.3917 19.2742 20.3101 19.1086C20.28 19.04 20.2658 18.9654 20.2685 18.8904C20.2712 18.8154 20.2908 18.7421 20.3258 18.6759C20.3998 18.557 20.5039 18.4601 20.6274 18.3953C20.7858 18.3184 20.9559 18.2689 21.1306 18.249C21.4309 18.2042 21.7311 18.2075 22.0314 18.2589C22.3838 18.2984 22.7317 18.3617 23.0751 18.4486L23.1495 18.4644V16.7196L23.0144 16.69C22.6637 16.6064 22.3087 16.5424 21.9511 16.4983C21.4872 16.4361 21.0173 16.4341 20.553 16.4923C19.9655 16.5457 19.4074 16.7749 18.9453 17.1444C18.632 17.3934 18.395 17.7234 18.258 18.1008C18.0543 18.6739 18.0524 19.3023 18.258 19.8773C18.365 20.1658 18.5295 20.4167 18.7514 20.6302C18.942 20.8146 19.1555 20.97 19.3918 21.0965C19.6998 21.2625 20.0242 21.3909 20.365 21.4818C20.4772 21.5161 20.5882 21.5516 20.6979 21.5885L20.8643 21.6498L20.9113 21.6695C21.0758 21.7288 21.2285 21.8237 21.3538 21.9462C21.4426 22.0305 21.5085 22.13 21.5516 22.2446C21.581 22.3485 21.5817 22.4585 21.5536 22.5627C21.5005 22.7312 21.3837 22.8718 21.2285 22.954C21.0592 23.0394 20.8774 23.0968 20.69 23.1239C20.4136 23.1678 20.1333 23.1818 19.8539 23.1654C19.4879 23.1373 19.1237 23.0885 18.7632 23.0192C18.5751 22.9781 18.3878 22.934 18.2012 22.8868L18.1366 22.8749ZM13.2901 24.8411H15.3462V16.607H13.2901V24.8411ZM37.1054 19.0394C37.3238 18.8599 37.5751 18.7256 37.845 18.6441C38.1149 18.5626 38.398 18.5356 38.6782 18.5646C38.9585 18.5936 39.2303 18.678 39.4782 18.8131C39.7261 18.9481 39.9451 19.1311 40.1229 19.3517C40.3012 19.5718 40.4346 19.8253 40.5157 20.0976C40.5967 20.3699 40.6237 20.6557 40.5952 20.9386C40.5666 21.2214 40.4831 21.4958 40.3493 21.746C40.2155 21.9962 40.0341 22.2174 39.8155 22.3967L39.7822 22.4244C39.3362 22.7695 38.7739 22.9242 38.216 22.8555C37.6582 22.7867 37.1493 22.4999 36.7988 22.0566C36.4483 21.6133 36.284 21.049 36.3413 20.4848C36.3987 19.9207 36.673 19.4017 37.1054 19.0394ZM34.1192 20.727C34.1291 21.3697 34.2807 22.0021 34.5628 22.5784C34.8449 23.1547 35.2505 23.6604 35.7502 24.059C36.25 24.4575 36.8313 24.7389 37.4521 24.8827C38.0729 25.0265 38.7177 25.0292 39.3396 24.8905C40.1743 24.7311 40.9412 24.3194 41.5386 23.71C42.136 23.1006 42.5357 22.3223 42.6846 21.4784C42.8335 20.6344 42.7246 19.7647 42.3724 18.9847C42.0201 18.2047 41.4412 17.5511 40.7123 17.1108C40.0643 16.7066 39.322 16.4824 38.5605 16.461C37.799 16.4395 37.0454 16.6215 36.3761 16.9886C35.7068 17.3557 35.1455 17.8949 34.7492 18.5514C34.3528 19.2079 34.1355 19.9584 34.1192 20.727ZM44.9655 9.98923C44.977 10.2537 45.0892 10.5035 45.2787 10.6865C45.4682 10.8696 45.7204 10.9717 45.9827 10.9717C46.2451 10.9717 46.4973 10.8696 46.6868 10.6865C46.8763 10.5035 46.9885 10.2537 47 9.98923V7.70692C46.9885 7.44245 46.8763 7.19267 46.6868 7.00963C46.4973 6.8266 46.2451 6.72443 45.9827 6.72443C45.7204 6.72443 45.4682 6.8266 45.2787 7.00963C45.0892 7.19267 44.977 7.44245 44.9655 7.70692V9.98923ZM39.3964 9.98923C39.4159 10.2485 39.5318 10.4908 39.7208 10.6676C39.9098 10.8444 40.158 10.9426 40.4157 10.9426C40.6733 10.9426 40.9215 10.8444 41.1105 10.6676C41.2995 10.4908 41.4154 10.2485 41.4349 9.98923V4.87329C41.4188 4.61179 41.3045 4.36631 41.1153 4.18687C40.9261 4.00743 40.6763 3.90753 40.4166 3.90753C40.157 3.90753 39.9071 4.00743 39.7179 4.18687C39.5287 4.36631 39.4145 4.61179 39.3984 4.87329L39.3964 9.98923ZM33.7451 12.0502C33.7646 12.309 33.8803 12.5508 34.0689 12.7272C34.2575 12.9037 34.5052 13.0017 34.7624 13.0017C35.0196 13.0017 35.2673 12.9037 35.4559 12.7272C35.6445 12.5508 35.7602 12.309 35.7797 12.0502V0.982486C35.7682 0.718021 35.656 0.468237 35.4665 0.285201C35.2769 0.102165 35.0247 0 34.7624 0C34.5001 0 34.2479 0.102165 34.0584 0.285201C33.8688 0.468237 33.7566 0.718021 33.7451 0.982486V12.0502ZM28.1879 9.98923C28.2039 10.2507 28.3182 10.4962 28.5074 10.6757C28.6966 10.8551 28.9465 10.955 29.2061 10.955C29.4657 10.955 29.7156 10.8551 29.9048 10.6757C30.094 10.4962 30.2083 10.2507 30.2244 9.98923V4.87329C30.2129 4.60882 30.1007 4.35904 29.9111 4.176C29.7216 3.99297 29.4694 3.8908 29.2071 3.8908C28.9448 3.8908 28.6926 3.99297 28.503 4.176C28.3135 4.35904 28.2013 4.60882 28.1898 4.87329L28.1879 9.98923ZM22.5092 9.98923C22.534 10.2441 22.6519 10.4806 22.8399 10.6526C23.0279 10.8246 23.2726 10.9199 23.5264 10.9199C23.7802 10.9199 24.0249 10.8246 24.213 10.6526C24.401 10.4806 24.5189 10.2441 24.5437 9.98923V7.70692C24.5322 7.44245 24.42 7.19267 24.2305 7.00963C24.041 6.8266 23.7888 6.72443 23.5264 6.72443C23.2641 6.72443 23.0119 6.8266 22.8224 7.00963C22.6329 7.19267 22.5207 7.44245 22.5092 7.70692V9.98923ZM16.8892 9.98923C16.9007 10.2537 17.0129 10.5035 17.2024 10.6865C17.392 10.8696 17.6442 10.9717 17.9065 10.9717C18.1688 10.9717 18.421 10.8696 18.6105 10.6865C18.8001 10.5035 18.9123 10.2537 18.9238 9.98923V4.87329C18.9123 4.60882 18.8001 4.35904 18.6105 4.176C18.421 3.99297 18.1688 3.8908 17.9065 3.8908C17.6442 3.8908 17.392 3.99297 17.2024 4.176C17.0129 4.35904 16.9007 4.60882 16.8892 4.87329V9.98923ZM11.236 12.0502C11.2475 12.3147 11.3597 12.5645 11.5492 12.7475C11.7387 12.9306 11.9909 13.0327 12.2532 13.0327C12.5156 13.0327 12.7678 12.9306 12.9573 12.7475C13.1468 12.5645 13.259 12.3147 13.2705 12.0502V0.982486C13.259 0.718021 13.1468 0.468237 12.9573 0.285201C12.7678 0.102165 12.5156 0 12.2532 0C11.9909 0 11.7387 0.102165 11.5492 0.285201C11.3597 0.468237 11.2475 0.718021 11.236 0.982486V12.0502ZM5.63366 9.98923C5.65601 10.2462 5.77296 10.4854 5.96145 10.6596C6.14994 10.8339 6.39628 10.9305 6.6519 10.9305C6.90752 10.9305 7.15387 10.8339 7.34236 10.6596C7.53084 10.4854 7.6478 10.2462 7.67015 9.98923V4.87329C7.65865 4.60882 7.54645 4.35904 7.35693 4.176C7.16742 3.99297 6.91521 3.8908 6.65288 3.8908C6.39056 3.8908 6.13835 3.99297 5.94883 4.176C5.75932 4.35904 5.64711 4.60882 5.63561 4.87329L5.63366 9.98923ZM0 9.98923C0.0195017 10.248 0.135139 10.4898 0.323764 10.6662C0.51239 10.8427 0.760085 10.9407 1.01727 10.9407C1.27445 10.9407 1.52215 10.8427 1.71077 10.6662C1.8994 10.4898 2.01504 10.248 2.03454 9.98923V7.70692C2.02304 7.44245 1.91084 7.19267 1.72132 7.00963C1.5318 6.8266 1.2796 6.72443 1.01727 6.72443C0.754942 6.72443 0.502735 6.8266 0.313219 7.00963C0.123703 7.19267 0.011501 7.44245 0 7.70692V9.98923Z" fill="black"/>
</svg>
