<svg width="64" height="30" viewBox="0 0 64 30" fill="none" xmlns="http://www.w3.org/2000/svg">
<path d="M34.3669 4.48016H34.9907L36.7488 2.72212L36.8622 1.98488C35.5011 0.737242 33.6297 0 31.5881 0C27.9586 0 24.8395 2.49528 23.9321 5.84122C24.1023 5.7278 24.5559 5.78451 24.5559 5.78451L28.072 5.2174C28.072 5.2174 28.2422 4.93385 28.3556 4.93385C29.9435 3.23252 32.5522 3.06239 34.3669 4.48016Z" fill="black"/>
<path d="M39.3006 5.8412C38.847 4.36672 38.053 3.00566 36.8621 1.98486L34.3668 4.48014C35.4443 5.33081 36.0114 6.57845 36.0114 7.93951V8.39319C37.2023 8.39319 38.2231 9.35728 38.2231 10.6049C38.2231 11.7958 37.2591 12.7599 36.0114 12.7599H31.588L31.1343 13.2136V15.879L31.588 16.3327H36.0114C39.1872 16.3327 41.7392 13.7807 41.7392 10.6049C41.7392 8.67675 40.7751 6.91871 39.2439 5.89792L39.3006 5.8412Z" fill="black"/>
<path d="M27.2216 16.2759H31.645V12.7599H27.2216C26.8813 12.7599 26.5978 12.7031 26.3142 12.5897L25.6904 12.7599L23.9323 14.5179L23.7622 15.085C24.7263 15.879 25.9739 16.2759 27.2216 16.2759Z" fill="black"/>
<path d="M27.2212 4.82037C24.0454 4.82037 21.4934 7.37236 21.4934 10.5482C21.4934 12.3629 22.3441 14.0642 23.7619 15.1418L26.3138 12.5898C25.5199 12.1928 25.0095 11.4555 25.0095 10.5482C25.0095 9.35724 25.9736 8.33645 27.2212 8.33645C28.0719 8.39316 28.8658 8.90356 29.2061 9.6408L31.7581 7.08881C30.7373 5.72775 29.036 4.82037 27.2212 4.82037ZM4.42345 27.3913C3.23252 27.3913 2.21172 26.9376 1.30435 26.087C0.396976 25.2363 0 24.2722 0 23.0246C0 21.7769 0.453687 20.8128 1.30435 19.9622C2.15501 19.1115 3.23252 18.6578 4.42345 18.6578C5.50095 18.7145 6.57846 19.1115 7.37241 19.9055L6.52175 20.7561C5.95464 20.189 5.2174 19.9055 4.36674 19.9055C3.51607 19.9055 2.77883 20.189 2.15501 20.8128C1.5879 21.38 1.24764 22.2306 1.30435 23.0246C1.30435 23.8752 1.5879 24.6692 2.21172 25.2363C2.77883 25.9168 3.57278 26.2004 4.36674 26.2004C5.27411 26.2004 5.95464 25.9168 6.57846 25.3497C6.91873 25.0094 7.14557 24.4991 7.20228 23.8752H4.42345V22.6843H8.39321C8.44992 22.9111 8.44992 23.138 8.44992 23.4215C8.44992 24.6125 8.10965 25.5198 7.42912 26.2004C6.63517 26.9943 5.67109 27.448 4.42345 27.448V27.3913ZM13.724 26.5974C13.1569 27.1078 12.5331 27.3913 11.7391 27.3913C10.9452 27.3913 10.2647 27.1078 9.75427 26.5974C9.24387 26.087 8.96032 25.4064 8.96032 24.6125C8.96032 23.8185 9.24387 23.138 9.75427 22.6276C10.2647 22.1172 10.9452 21.8336 11.7391 21.8336C12.5331 21.8336 13.2136 22.1172 13.724 22.6276C14.2344 23.138 14.518 23.8185 14.518 24.6125C14.518 25.4064 14.2344 26.087 13.724 26.5974ZM10.6049 25.8034C10.8885 26.1437 11.2855 26.3138 11.6824 26.3138C12.1361 26.3138 12.4764 26.1437 12.8167 25.8034C13.1569 25.4631 13.2703 25.0662 13.2703 24.6125C13.2703 24.1021 13.1002 23.7051 12.8167 23.3648C12.5331 23.0246 12.1361 22.9111 11.6824 22.9111C11.2855 22.9111 10.8318 23.0813 10.5482 23.3648C10.2647 23.7051 10.0945 24.1021 10.0945 24.6125C10.0945 25.1229 10.2647 25.5198 10.5482 25.8034H10.6049ZM19.8488 26.5974C19.2817 27.1078 18.6579 27.3913 17.8639 27.3913C17.07 27.3913 16.3894 27.1078 15.879 26.5974C15.3686 26.087 15.0851 25.4064 15.0851 24.6125C15.0851 23.8185 15.3686 23.138 15.879 22.6276C16.3894 22.1172 17.07 21.8336 17.8639 21.8336C18.6579 21.8336 19.3384 22.1172 19.8488 22.6276C20.3592 23.138 20.6428 23.8185 20.6428 24.6125C20.6428 25.4064 20.3592 26.087 19.8488 26.5974ZM16.7297 25.8034C17.0133 26.1437 17.4102 26.3138 17.8072 26.3138C18.2609 26.3138 18.6012 26.1437 18.9414 25.8034C19.2817 25.4631 19.3951 25.0662 19.3951 24.6125C19.3951 24.1021 19.225 23.7051 18.9414 23.3648C18.6579 23.0246 18.2609 22.9111 17.8072 22.9111C17.4102 22.9111 16.9565 23.0813 16.673 23.3648C16.3894 23.7051 16.2193 24.1021 16.2193 24.6125C16.2193 25.1229 16.3894 25.5198 16.673 25.8034H16.7297ZM23.8753 29.8866C23.2515 29.8866 22.7411 29.7165 22.2874 29.3762C21.8337 29.0359 21.5501 28.639 21.38 28.242L22.4575 27.7883C22.5709 28.0718 22.7411 28.2987 22.9679 28.4688C23.3082 28.724 23.4783 28.7524 23.8753 28.7524C24.329 28.7524 24.7259 28.5822 24.9528 28.3554C25.1796 28.1286 25.3498 27.6749 25.3498 27.1078V26.7108H25.293C24.9528 27.1078 24.4424 27.3346 23.8186 27.3346C23.0813 27.3346 22.4575 27.051 21.9471 26.5406C21.38 26.087 21.0964 25.3497 21.1532 24.6125C21.0964 23.8752 21.38 23.138 21.9471 22.6276C22.4575 22.0605 23.0813 21.8336 23.8186 21.8336C24.1588 21.8336 24.4424 21.8904 24.6692 22.0038C25.0095 22.1739 25.1229 22.2873 25.293 22.4575H25.3498V22.0038H26.5407V27.051C26.5407 28.0151 26.3138 28.7524 25.8034 29.2628C25.293 29.7165 24.6692 30 23.8753 30V29.8866ZM23.932 26.2571C24.329 26.3138 24.7259 26.1437 24.9528 25.8034C25.2363 25.4631 25.4065 25.0662 25.4065 24.6125C25.4065 24.1021 25.2363 23.7051 24.9528 23.3648C24.7259 23.0813 24.329 22.9111 23.932 22.9111C23.4783 22.9111 23.138 23.0813 22.8545 23.4215C22.5709 23.7618 22.4008 24.1588 22.4008 24.6692C22.4008 25.1229 22.5709 25.5766 22.8545 25.8601C23.138 26.1437 23.535 26.3705 23.932 26.3705V26.2571ZM28.5823 18.9414V27.1645H27.3346V18.9414H28.5823ZM31.9282 27.3346C31.1343 27.3346 30.4537 27.051 29.9433 26.5406C29.4329 26.0302 29.1494 25.3497 29.1494 24.5558C29.1494 23.7618 29.4329 23.0813 29.9433 22.5142C30.397 22.0605 31.0776 21.7769 31.8148 21.7769C32.1551 21.7769 32.4953 21.8336 32.7789 21.9471C33.0057 22.1172 33.2326 22.2306 33.4594 22.4575C33.6295 22.6276 33.7997 22.7977 33.9131 23.0246C34.0265 23.1947 34.1399 23.3648 34.1967 23.5917L34.3101 23.9319L30.5672 25.4631C30.8507 26.0302 31.3044 26.3138 31.9282 26.3138C32.4953 26.3138 32.949 26.0302 33.2893 25.5198L34.2534 26.1437C34.0265 26.4839 33.743 26.7675 33.346 26.9943C32.949 27.2212 32.4953 27.3913 31.9282 27.3913V27.3346ZM30.397 24.4423L32.8923 23.4215C32.8356 23.2514 32.6655 23.0813 32.4953 22.9679C32.2685 22.9111 32.0416 22.8544 31.8148 22.8544C31.4745 22.8544 31.1343 23.0246 30.794 23.3081C30.4537 23.5917 30.3403 23.9887 30.3403 24.4991L30.397 24.4423ZM40.7751 27.3346C39.6409 27.3346 38.7335 26.9376 37.9396 26.2004C37.1456 25.4631 36.8054 24.4991 36.8054 23.3648C36.8054 22.2306 37.2023 21.2665 37.9396 20.5293C38.6768 19.792 39.6409 19.3951 40.7751 19.3951C41.9093 19.3951 42.8734 19.7921 43.5539 20.6427L42.8734 21.3232C42.363 20.6994 41.6258 20.3592 40.7751 20.3592C39.9245 20.3592 39.2439 20.6427 38.6768 21.2098C38.1097 21.7769 37.8262 22.5142 37.8262 23.4215C37.8262 24.3289 38.1097 25.0662 38.6768 25.6333C39.2439 26.2004 39.9245 26.4839 40.7751 26.4839C41.6825 26.4839 42.4764 26.1437 43.1003 25.4064L43.7808 26.087C43.4405 26.4839 42.9868 26.8242 42.4764 27.051C41.9093 27.2779 41.3422 27.3913 40.7751 27.3913V27.3346ZM45.6522 27.1645H44.6882V19.6219H45.6522V27.1645ZM47.2402 22.5709C47.7506 22.0605 48.3744 21.7769 49.1683 21.7769C49.9623 21.7769 50.5861 22.0605 51.0965 22.5709C51.6069 23.0813 51.8337 23.7618 51.8337 24.5558C51.8337 25.3497 51.6069 26.0302 51.0965 26.5406C50.5861 27.051 49.9623 27.3346 49.1683 27.3346C48.3744 27.3346 47.7506 27.051 47.2402 26.5406C46.7298 26.0302 46.5029 25.3497 46.5029 24.5558C46.5029 23.7618 46.7298 23.0813 47.2402 22.5709ZM47.9774 25.9168C48.3177 26.2571 48.7146 26.4272 49.1683 26.4272C49.8489 26.4272 50.019 26.2571 50.3593 25.9168C50.6995 25.5766 50.8697 25.1229 50.8697 24.5558C50.8697 23.9887 50.6995 23.535 50.3593 23.1947C50.019 22.8544 49.622 22.6843 49.1683 22.6843C48.7146 22.6843 48.3177 22.8544 47.9774 23.1947C47.6371 23.535 47.467 23.9887 47.467 24.5558C47.467 25.1229 47.6371 25.5766 47.9774 25.9168ZM57.2213 27.1645H56.3139V26.4272H56.2572C56.0871 26.6541 55.8602 26.8809 55.5767 27.051C55.2931 27.2212 54.9528 27.3346 54.6126 27.3346C53.9887 27.3346 53.4784 27.1645 53.1381 26.7675C52.7978 26.3705 52.6277 25.8601 52.6277 25.1796V22.0038H53.5918V25.0095C53.5918 25.9735 54.0455 26.4839 54.8961 26.4839C55.2364 26.4839 55.6334 26.3138 55.8602 26.0302C56.087 25.69 56.2005 25.293 56.2005 24.896V22.0605H57.1646V27.2779L57.2213 27.1645ZM60.5105 27.3346C59.83 27.3346 59.2629 27.051 58.7525 26.5406C58.2421 26.0302 58.0152 25.3497 58.0152 24.5558C58.0152 23.7618 58.2421 23.138 58.7525 22.5709C59.2629 22.0038 59.83 21.7769 60.5105 21.7769C60.9075 21.7769 61.2477 21.8904 61.588 22.0038C61.9283 22.1172 62.1551 22.4008 62.2685 22.6276H62.3252L62.2685 21.8904V19.5085H63.2326V27.1078H62.3252V26.3705H62.2685C62.0984 26.5974 61.8716 26.8242 61.588 26.9943C61.2477 27.1645 60.9075 27.2212 60.5105 27.2212V27.3346ZM60.6806 26.4272C61.0776 26.4839 61.5313 26.3138 61.8148 25.9735C62.1551 25.6333 62.2685 25.1796 62.2685 24.6125C62.2685 24.0454 62.0984 23.5917 61.8148 23.2514C61.5313 22.9679 61.0776 22.741 60.6806 22.741C60.2269 22.741 59.83 22.9111 59.4897 23.2514C58.9793 23.7618 58.9793 24.0454 58.9793 24.6125C58.9793 25.1796 59.1494 25.6333 59.4897 25.9735C59.7733 26.3138 60.2269 26.5406 60.6806 26.5406V26.4272Z" fill="black"/>
</svg>
