<svg width="114" height="25" viewBox="0 0 114 25" fill="none" xmlns="http://www.w3.org/2000/svg">
<path d="M56.1925 11.1031V19.9322C55.4273 19.9221 54.6972 19.6087 54.1615 19.0603C53.6257 18.5119 53.3279 17.773 53.333 17.005V11.1174C53.2833 10.4289 52.9757 9.78486 52.4721 9.31472C51.9684 8.84459 51.3062 8.58325 50.6184 8.58325C49.9306 8.58325 49.2683 8.84459 48.7647 9.31472C48.2611 9.78486 47.9535 10.4289 47.9038 11.1174V19.937C47.1495 19.937 46.4261 19.6369 45.8918 19.1025C45.3576 18.5682 45.0563 17.8431 45.0537 17.0861V11.1174C44.9904 10.4376 44.6765 9.80593 44.1735 9.34614C43.6705 8.88636 43.0147 8.63153 42.3344 8.63153C41.654 8.63153 40.9982 8.88636 40.4952 9.34614C39.9923 9.80593 39.6784 10.4376 39.615 11.1174V17.0432C39.6114 17.8038 39.311 18.5327 38.7782 19.0736C38.2455 19.6146 37.5227 19.9245 36.765 19.937V11.1174C36.7875 9.66415 37.3841 8.27934 38.4235 7.26738C39.463 6.25542 40.8603 5.69913 42.3082 5.72079H42.3178C43.8853 5.69695 45.3958 6.34054 46.474 7.4847C47.0034 6.92182 47.6427 6.47464 48.3522 6.17113C49.0616 5.86762 49.8258 5.71431 50.597 5.72079C52.0501 5.69141 53.4553 6.24239 54.5037 7.25259C55.5521 8.2628 56.1578 9.64952 56.1878 11.1079M89.509 0.181159V17.1671C89.5289 17.9112 89.8383 18.6178 90.3711 19.1355C90.9038 19.6533 91.6174 19.941 92.359 19.937V2.94621C92.3391 2.20219 92.0297 1.49559 91.4969 0.977838C90.9642 0.460086 90.2506 0.172382 89.509 0.17639M114 19.7701C112.461 19.9036 110.794 19.4412 110.195 18.1349L108.68 14.8693H98.5625L97.0615 18.2255C96.349 19.5508 94.4775 19.9703 93.0335 19.9703L101.289 1.82588C101.464 1.35944 101.772 0.955317 102.175 0.664358C102.579 0.3734 103.059 0.2086 103.555 0.190693C104.052 0.211939 104.532 0.377836 104.937 0.668173C105.342 0.958509 105.654 1.36075 105.835 1.82588L114 19.7701ZM107.464 12.0613L103.636 3.63747L99.8165 12.0613H107.464ZM16.4255 15.1029C14.8553 16.4371 12.8683 17.1761 10.811 17.191C6.3935 17.191 2.793 13.9349 2.793 9.97324C2.793 6.0116 6.403 2.79842 10.811 2.79842C13.1908 2.79842 15.466 3.77572 17.1095 5.50626C17.5571 5.97742 18.156 6.27495 18.8008 6.34646C19.4455 6.41797 20.0947 6.25887 20.634 5.89718C18.9145 2.32169 15.0432 0 10.8015 0C4.84975 0 0 4.47175 0 9.98278C0 15.4938 4.8355 19.9751 10.8063 19.9751C12.972 19.9792 15.0942 19.3641 16.9242 18.2016C18.1617 17.4294 19.2156 16.3945 20.0117 15.1696C19.5161 14.7394 18.8858 14.4972 18.2307 14.485C17.5755 14.4728 16.9367 14.6914 16.4255 15.1029ZM70.718 2.99865H76.836V17.0718C76.8232 17.8121 77.1018 18.5277 77.6113 19.0632C78.1209 19.5987 78.8203 19.911 79.5578 19.9322H79.686V2.99865H85.785C86.5325 2.99865 87.2494 2.70095 87.7784 2.17092C88.3074 1.64089 88.6052 0.921832 88.6065 0.17162H67.944C67.9402 0.915145 68.2299 1.62994 68.7497 2.1597C69.2695 2.68946 69.9772 2.99109 70.718 2.99865ZM35.9955 12.8527C35.9955 16.8382 32.5423 19.9322 28.1533 19.9322C23.7405 19.9322 20.3157 16.8334 20.3157 12.8527C20.3157 8.87199 23.7548 5.72556 28.1533 5.72556C32.5518 5.72556 35.9955 8.86246 35.9955 12.8527ZM33.136 12.8384C33.136 10.4547 30.9273 8.57642 28.1485 8.57642C25.3555 8.57642 23.1562 10.45 23.1562 12.8384C23.1562 15.2268 25.3603 17.0718 28.1438 17.0718C30.9273 17.0718 33.136 15.2221 33.136 12.8384ZM65.4217 5.68742C60.9092 5.68742 57.6318 8.75281 57.6318 12.9242V24.9999C58.3793 25.0075 59.0996 24.7181 59.6353 24.1947C60.1711 23.6713 60.4787 22.9565 60.4912 22.2062V12.9099C60.4912 9.9065 62.9422 8.54305 65.4217 8.54305C68.0295 8.54305 70.0815 10.4404 70.0815 12.8575C70.0815 15.1792 68.0295 17.0289 65.4265 17.0289C63.669 17.0289 62.358 16.5855 61.56 15.7036V15.7274C61.4903 15.8939 61.43 16.0642 61.3795 16.2375C61.1918 16.9547 61.2909 17.7172 61.6556 18.3621C62.0204 19.007 62.6219 19.4832 63.3318 19.6891C64.0284 19.8353 64.733 19.9068 65.4455 19.9036C69.6635 19.9036 72.9505 16.8001 72.9172 12.867C72.9193 11.9068 72.7247 10.9564 72.3456 10.0748C71.9664 9.19324 71.4108 8.39925 70.7133 7.74213C69.2695 6.41399 67.3802 5.68038 65.4217 5.68742Z" fill="black"/>
</svg>
