<svg width="78" height="25" viewBox="0 0 78 25" fill="none" xmlns="http://www.w3.org/2000/svg">
<path d="M55.9458 20.341C54.2146 20.2289 53.2076 19.2332 52.9414 17.37C52.87 16.8741 52.87 16.8612 52.8624 13.6435L52.856 10.5289H54.3872L54.3936 13.5417C54.3987 16.2571 54.4018 16.5752 54.428 16.7659C54.5318 17.5413 54.7401 18.0623 55.0929 18.4365C55.3757 18.736 55.7075 18.9112 56.1655 19.0046C56.3821 19.0484 56.9973 19.0484 57.1948 19.0046C57.6375 18.9132 58.0433 18.6906 58.3604 18.365C58.7349 17.987 59.0119 17.4505 59.1463 16.8438L59.1916 16.639L59.1967 13.601L59.2018 10.563H60.7654V20.1149H59.2177V19.3569C59.2177 18.8423 59.2119 18.6014 59.2005 18.6053C59.1654 18.6468 59.1356 18.6927 59.1119 18.7418C58.8296 19.2485 58.4152 19.6673 57.9139 19.9526C57.3304 20.2778 56.7445 20.3931 55.9451 20.341H55.9458ZM73.5142 20.3332C72.8841 20.2799 72.2748 20.079 71.7346 19.7465C70.6264 19.0542 69.9703 17.9123 69.778 16.3414C69.7117 15.7985 69.7035 15.0681 69.7589 14.6064C69.8831 13.5739 70.2843 12.5609 70.8563 11.8376C71.0028 11.6521 71.3353 11.3166 71.5187 11.1684C72.0134 10.7696 72.5919 10.4906 73.2098 10.3531C73.569 10.2739 74.2002 10.2371 74.5817 10.2726C75.5384 10.3621 76.4161 10.8174 77.0122 11.5336C77.6186 12.2614 77.9511 13.279 77.9938 14.5317C78.0001 14.7281 78.002 15.0727 77.9976 15.2968L77.9887 15.7045L74.6359 15.709L71.2837 15.7128V15.8642C71.2902 16.3562 71.3928 16.8421 71.5856 17.294C71.7506 17.6785 72.0346 18.0984 72.2671 18.3013C72.7442 18.7183 73.3394 18.9723 73.9677 19.0271C74.204 19.0496 74.8078 19.0258 75.0779 18.984C75.8355 18.8696 76.5541 18.5703 77.1715 18.1119C77.2415 18.0591 77.3078 18.0095 77.3199 18.0024C77.3371 17.9915 77.3409 18.1287 77.3403 18.7077V19.4264L77.181 19.5256C76.4973 19.949 75.7308 20.2173 74.9346 20.312C74.6925 20.3422 73.804 20.3558 73.5142 20.3332ZM76.4326 14.2702C76.4326 13.4992 76.111 12.6433 75.6556 12.2028C75.3313 11.8884 74.9171 11.6856 74.4722 11.6231C74.2512 11.5884 73.7862 11.6012 73.5531 11.6489C73.0775 11.7403 72.6403 11.9749 72.299 12.3219C71.9235 12.6983 71.6396 13.1578 71.4697 13.6641C71.406 13.8496 71.3321 14.1536 71.3092 14.3236L71.2983 14.4041H76.432L76.4326 14.2702ZM30.9526 20.0936L33.4825 13.3801L36.0054 6.68844H37.627L37.6939 6.86233C37.8996 7.39431 42.7447 20.1001 42.7447 20.1072C42.7447 20.111 42.3562 20.1149 41.8823 20.1149H41.0199L40.3219 18.2369L39.6231 16.3588H34.0003L33.9761 16.4226C33.9627 16.4574 33.664 17.3023 33.3131 18.3L32.6742 20.1143H31.8106C31.1265 20.1143 30.9469 20.1104 30.9526 20.0936ZM39.1098 14.9258C39.1098 14.9226 38.6404 13.6358 38.0652 12.0662C36.9913 9.12938 36.9315 8.95291 36.8461 8.48082C36.8066 8.25991 36.7863 8.25412 36.7633 8.45506C36.7301 8.67396 36.6809 8.89009 36.6162 9.10168C36.5882 9.19056 36.1041 10.5315 35.5411 12.0823C35.1963 13.0258 34.8547 13.9704 34.5162 14.9161C34.5162 14.9245 35.55 14.931 36.813 14.931C38.0767 14.931 39.1098 14.9284 39.1098 14.9258ZM43.2664 19.8702V19.6254L46.0676 15.736L48.8695 11.846L46.3326 11.8376L43.7963 11.8292L43.7919 11.1787L43.7874 10.5289H51.1248V10.9681L48.3223 14.8794C46.7822 17.0306 45.5211 18.794 45.5211 18.7978C45.5211 18.8023 46.767 18.8062 48.2892 18.8062H51.0573V20.1149H43.2664V19.8702ZM63.8233 20.1033C63.817 20.0969 63.8119 17.9406 63.8119 15.3109V10.5289H65.3437V11.5143C65.3437 12.0572 65.35 12.501 65.3577 12.501C65.366 12.501 65.4029 12.4121 65.4405 12.3032C65.6183 11.7979 65.9113 11.3421 66.2959 10.9726C66.6274 10.6485 67.0502 10.4363 67.5061 10.3653C67.6366 10.3441 67.7481 10.3395 68.0105 10.3466C68.3404 10.3556 68.5124 10.3801 68.713 10.4458L68.7767 10.4671V12.072L68.5952 11.9806C68.2819 11.8204 67.9314 11.7494 67.5812 11.7751C67.3347 11.788 67.1729 11.8202 66.9761 11.8949C66.5754 12.0437 66.2354 12.324 66.0105 12.691C65.668 13.2573 65.4497 13.8914 65.3704 14.5503C65.3577 14.6643 65.3507 15.5905 65.3475 17.4163L65.343 20.1149H64.5889C64.1743 20.1149 63.8297 20.1097 63.8233 20.1033ZM8.99251 1.13503e-06C9.25026 -0.000350977 9.5016 0.08123 9.71099 0.23321C9.92038 0.38519 10.0772 0.599879 10.1594 0.846923L17.6408 23.2611C17.7032 23.4485 17.7207 23.6482 17.6917 23.8438C17.6627 24.0393 17.5881 24.2251 17.474 24.3857C17.3599 24.5464 17.2096 24.6772 17.0356 24.7674C16.8616 24.8577 16.6688 24.9047 16.4733 24.9047H25.0948C25.3895 24.9036 25.6741 24.7961 25.8973 24.6014C26.1205 24.4068 26.2676 24.1379 26.3119 23.8433C26.3417 23.6479 26.3242 23.4481 26.261 23.2611L18.7802 0.846923C18.6981 0.599879 18.5412 0.38519 18.3318 0.23321C18.1225 0.08123 17.8711 -0.000350977 17.6134 1.13503e-06H8.99251ZM8.71417 0.0966093C8.45628 0.0970457 8.20498 0.179066 7.9955 0.331174C7.78602 0.483283 7.62886 0.697854 7.54604 0.944819L0.0646539 23.3577C0.00214677 23.5449 -0.0153692 23.7445 0.0135555 23.9399C0.0424802 24.1353 0.117014 24.3209 0.230988 24.4814C0.344962 24.642 0.4951 24.7727 0.668975 24.8629C0.84285 24.953 1.03546 25.0001 1.23087 25H7.25051C7.50843 24.9997 7.75981 24.9179 7.96941 24.7659C8.17901 24.6139 8.33631 24.3994 8.41927 24.1524L9.88167 19.789L7.08745 17.0808C7.0365 17.0293 6.80529 16.601 7.01102 16.2384C7.24159 15.8887 7.62629 15.8887 7.62629 15.8887H11.2275L13.1179 10.3808L9.88549 0.768994C9.87721 0.721979 9.69568 0.480462 9.41034 0.288536C9.12499 0.0953214 8.71353 0.0966093 8.71353 0.0966093H8.71417ZM7.69763 16.0522C7.58363 16.0522 7.47225 16.0868 7.37799 16.1516C7.28373 16.2164 7.21096 16.3085 7.16917 16.4157C7.12738 16.523 7.1185 16.6405 7.14368 16.7529C7.16887 16.8653 7.22696 16.9674 7.31038 17.046L15.1918 24.4848C15.4211 24.7012 15.7128 24.828 16.0261 24.828C16.0261 24.828 16.2936 24.8467 16.4548 24.821C16.8331 24.7604 17.1892 24.4481 17.307 24.3167C17.6102 23.9083 17.4726 23.2733 17.4726 23.2733L15.0867 16.0516L7.69763 16.0522Z" fill="black"/>
</svg>
