<svg width="41" height="25" viewBox="0 0 41 25" fill="none" xmlns="http://www.w3.org/2000/svg">
<path d="M11.5575 9.0545C11.5113 10.5275 12.2365 11.1798 12.2544 11.594C12.2459 11.6784 12.2176 11.7594 12.1719 11.8303C12.1262 11.9013 12.0645 11.9601 11.9918 12.0018L11.1718 12.5845C11.0657 12.66 10.9406 12.7033 10.8111 12.7094C10.7836 12.7081 10.2865 12.8284 9.49916 11.0439C9.01884 11.6526 8.40768 12.1416 7.71248 12.4736C7.01727 12.8056 6.25645 12.9716 5.48827 12.9591C4.44535 13.017 1.61896 12.3582 1.76438 9.30358C1.66252 6.81411 3.94631 5.26762 6.30826 5.39833C6.7631 5.39963 7.69199 5.4224 9.31851 5.80609V4.79027C9.49083 3.0695 8.3768 1.73436 6.44791 1.93467C6.29417 1.93532 5.20512 1.90215 3.51134 2.59215C3.03984 2.81196 2.97963 2.77555 2.82268 2.77555C2.34798 2.77555 2.54337 1.37863 2.63434 1.20174C2.9681 0.78553 4.93158 0.00838392 6.85855 0.0194396C8.14698 -0.0962154 9.4285 0.307457 10.4261 1.14321C10.8316 1.60373 11.141 2.14289 11.3355 2.72813C11.5301 3.31338 11.6058 3.93258 11.5581 4.54835L11.5575 9.0545ZM6.02126 11.1609C8.09878 11.1304 8.97834 9.86221 9.17885 9.17936C9.33644 8.52578 9.31018 8.11217 9.31018 7.39745C8.69071 7.24658 7.79897 7.08204 6.77591 7.08074C5.80538 7.0066 4.0328 7.44688 4.10198 9.17871C4.02255 10.2706 4.81435 11.2208 6.02126 11.1609ZM16.9706 12.6599C16.4671 12.7068 16.2327 12.3439 16.1583 11.9855L12.9681 1.27783C12.9059 1.09704 12.8649 0.910394 12.8451 0.719847C12.8333 0.641289 12.8528 0.561201 12.8991 0.497181C12.9455 0.433162 13.015 0.390447 13.0924 0.378423C13.1077 0.375821 12.9559 0.378423 14.5177 0.378423C15.0802 0.321193 15.2634 0.770573 15.3217 1.05282L17.61 10.2114L19.7343 1.05282C19.7682 0.84341 19.9226 0.3329 20.5542 0.386877H21.6535C21.7926 0.375171 22.3653 0.35436 22.4658 1.06127L24.6068 10.337L26.9687 1.06127C26.9995 0.919499 27.143 0.321844 27.781 0.386877H29.0443C29.0988 0.378423 29.4383 0.3342 29.3806 0.944861C29.3531 1.06517 29.5991 0.251609 26.0014 11.994C25.9277 12.3523 25.6926 12.7152 25.1891 12.6684H23.9918C23.2909 12.7432 23.1904 12.0402 23.1795 11.9693L21.0552 3.05129L18.9553 11.9602C18.945 12.0311 18.8444 12.7341 18.143 12.6593H16.9706V12.6599ZM34.4902 13.0261C34.1135 13.0267 32.3172 13.0066 30.8156 12.2268C30.666 12.1625 30.5386 12.0546 30.4495 11.9167C30.3605 11.7788 30.3137 11.6172 30.3153 11.4523V10.7532C30.3153 10.2036 30.7125 10.3044 30.8809 10.3701C31.5241 10.6342 31.9367 10.8345 32.7266 10.9944C35.0744 11.4841 36.1071 10.8449 36.3601 10.7031C37.2025 10.1952 37.2692 9.03304 36.6964 8.43018C36.0251 7.85854 35.7048 7.83708 33.2929 7.06448C32.9956 6.98059 30.4934 6.17938 30.4876 3.65935C30.4485 1.82281 32.0923 0.00578238 34.9412 0.02074C35.7528 0.0200897 37.9155 0.289327 38.5011 1.03656C38.5875 1.17248 38.6305 1.33246 38.6241 1.49439V2.15188C38.6241 2.44062 38.5203 2.585 38.3121 2.585C37.8182 2.52907 36.9418 1.85858 35.1628 1.88589C34.7214 1.86248 32.6074 1.94507 32.7022 3.50977C32.6747 4.7428 34.4069 5.20519 34.6048 5.25851C36.9405 5.97193 37.7214 6.09029 38.6484 7.18219C39.7464 8.62918 39.1545 10.3233 38.9271 10.7876C37.7048 13.2257 34.544 13.0274 34.4902 13.0261ZM37.0654 19.8455C32.5792 23.209 26.0667 24.9993 20.5062 24.9993C13.0034 25.0495 5.75337 22.2489 0.181423 17.1479C-0.236898 16.7648 0.132096 16.24 0.640744 16.532C6.82168 20.1213 13.8198 22.0072 20.9405 22.0026C26.2581 21.9737 31.5177 20.8786 36.4171 18.7802C37.1718 18.455 37.8118 19.2875 37.0654 19.8455ZM38.9354 17.6805C38.3614 16.9313 35.1378 17.3306 33.6945 17.5056C33.2595 17.5556 33.1859 17.1726 33.5799 16.8897C36.1468 15.0577 40.3627 15.5825 40.847 16.1984C41.3306 16.8143 40.7157 21.1025 38.3127 23.1511C37.9437 23.4678 37.5907 23.3007 37.7547 22.8845C38.2954 21.5025 39.5094 18.4303 38.9354 17.6805Z" fill="black"/>
</svg>
