<svg width="117" height="25" viewBox="0 0 117 25" fill="none" xmlns="http://www.w3.org/2000/svg">
<path d="M11.8666 13.1184V25H0V13.1184H11.8666ZM24.9738 13.1184V25H13.1048V13.1184H24.9738ZM109.452 3.90742C109.926 3.90742 110.324 3.94802 110.645 4.02923L110.917 4.11357V6.28279L110.823 6.24063C110.474 6.08111 110.095 5.995 109.711 5.98763C109.207 5.98919 108.817 6.14927 108.541 6.46786C108.31 6.73647 108.175 7.11285 108.134 7.59698L108.122 7.89917V9.25084H111.912V6.82393L114.444 6.04854V9.25084H117V11.31H114.444V16.377C114.444 17.0298 114.56 17.4905 114.791 17.7591C115.02 18.0215 115.382 18.1526 115.877 18.1526C116.048 18.1479 116.218 18.1195 116.382 18.0683C116.507 18.0324 116.628 17.9861 116.745 17.9301L116.895 17.8434L117 17.7731V19.8534L116.965 19.8721C116.715 19.9912 116.449 20.0755 116.176 20.1227C115.802 20.204 115.44 20.2446 115.092 20.2446C113.103 20.2446 112.04 19.2255 111.921 17.2109L111.912 16.8221V11.31H108.122V19.9845H105.569V11.31H103.79V9.2485H105.569V7.7633C105.569 7.01524 105.732 6.34683 106.058 5.75806C106.387 5.17085 106.847 4.71561 107.439 4.39233C108.029 4.0714 108.707 3.90742 109.452 3.90742ZM98.1983 8.99081C99.8648 8.99081 101.187 9.48744 102.126 10.4666C103.067 11.4458 103.542 12.8069 103.542 14.5146C103.542 16.2434 103.034 17.6443 102.032 18.6821C101.033 19.7175 99.6541 20.2446 97.9408 20.2446C96.2954 20.2446 94.966 19.7456 93.9876 18.7594C93.0116 17.7755 92.5154 16.4215 92.5154 14.7418C92.5154 12.9732 93.0233 11.5559 94.0251 10.5322C95.0268 9.50853 96.4312 8.99081 98.1983 8.99081ZM88.3983 8.99081C88.7682 8.99081 89.1871 9.03454 89.6552 9.122C90.0063 9.18603 90.3106 9.26256 90.568 9.35157L90.8442 9.45933V11.7949L90.7389 11.7223C90.3901 11.4922 90.0091 11.3154 89.6084 11.1975C89.1891 11.0676 88.753 11.0005 88.3141 10.9984C87.8538 10.9984 87.4918 11.1007 87.2281 11.3053C87.107 11.3927 87.0085 11.5079 86.9409 11.6411C86.8733 11.7744 86.8386 11.9219 86.8395 12.0713C86.8395 12.4243 86.9409 12.6999 87.1438 12.8982C87.2374 12.9857 87.3825 13.0841 87.5791 13.1934L88.0473 13.4277L88.3375 13.5518L88.6605 13.6853C89.6622 14.0914 90.3706 14.5435 90.7857 15.0417C91.2023 15.5407 91.413 16.1614 91.413 16.8853C91.413 17.8879 91.0221 18.7078 90.2497 19.3239C89.482 19.933 88.4311 20.2446 87.1251 20.2446C86.7038 20.2446 86.2146 20.1883 85.6786 20.0759C85.3164 20.0049 84.9603 19.9054 84.6137 19.7784L84.286 19.6402V17.1805L84.3913 17.2554C84.8282 17.5678 85.3049 17.8098 85.8214 17.9816C86.3379 18.1503 86.8036 18.2354 87.2187 18.237C88.3281 18.237 88.8688 17.8856 88.8688 17.1641C88.879 16.9496 88.8234 16.7371 88.7096 16.555C88.5527 16.3635 88.3594 16.2051 88.1409 16.0888L87.9583 15.9881L87.4762 15.7562L86.8512 15.4868C86.1569 15.1885 85.6388 14.8988 85.2971 14.6177C84.9671 14.3505 84.7055 14.0084 84.5341 13.6197C84.3598 13.1983 84.2753 12.7451 84.286 12.2892C84.286 11.3193 84.6745 10.5182 85.4399 9.90676C86.1982 9.29769 87.1953 8.99316 88.3983 8.99316M77.7418 8.99316C79.4082 8.99316 80.7283 9.48978 81.6692 10.469C82.6101 11.4482 83.0829 12.8092 83.0829 14.517C83.0829 16.2458 82.5774 17.6466 81.5756 18.6844C80.5738 19.7222 79.1976 20.2469 77.482 20.2469C75.8365 20.2469 74.5094 19.7479 73.5311 18.7617C72.5527 17.7778 72.0565 16.4262 72.0565 14.7442C72.0565 12.9755 72.5668 11.5583 73.5662 10.5346C74.5656 9.51087 75.9723 8.99316 77.7418 8.99316ZM61.1402 8.99316C61.5927 8.99316 62.0623 9.04391 62.5492 9.14542C62.9159 9.22039 63.2264 9.31409 63.4807 9.42654L63.7499 9.56006V11.9963L63.6446 11.9214C62.8815 11.3662 62.0717 11.0851 61.2431 11.0851C60.2742 11.0851 59.4784 11.413 58.8792 12.0619C58.2753 12.7132 57.9687 13.594 57.9687 14.6809C57.9687 15.7632 58.2613 16.6229 58.8394 17.2344C59.4198 17.8481 60.2078 18.1558 61.2034 18.1573C61.5607 18.1573 61.9633 18.0792 62.4111 17.9231C62.7076 17.8184 62.99 17.688 63.2584 17.5319L63.6446 17.2789L63.7499 17.2016V19.5137L63.7171 19.5324C62.8979 20.0056 61.8728 20.2469 60.6744 20.2469C59.713 20.2627 58.7636 20.0312 57.9172 19.5746C57.1173 19.1331 56.4615 18.4703 56.0284 17.6654C55.5698 16.8173 55.3368 15.8654 55.3519 14.9011C55.3519 13.7416 55.586 12.7038 56.0471 11.8136C56.5105 10.9234 57.1916 10.2207 58.0717 9.73107C58.9494 9.24147 59.9839 8.99316 61.1402 8.99316ZM70.8629 9.06578C71.178 9.06578 71.4433 9.09389 71.6586 9.15011L71.8927 9.23444V11.7808L71.785 11.7035C71.6042 11.591 71.4055 11.5102 71.1975 11.4646C70.9505 11.3952 70.6957 11.3575 70.4392 11.3521C70.1166 11.3474 69.798 11.4241 69.5129 11.5752C69.2277 11.7262 68.9852 11.9468 68.8078 12.2165C68.4489 12.7163 68.2438 13.3464 68.1923 14.107L68.1782 14.4959V19.9869H65.6551V9.25319H68.1782V11.1108H68.204C68.4404 10.5088 68.7493 10.0239 69.1753 9.67251C69.6637 9.26802 70.2262 9.06578 70.8629 9.06578ZM53.6129 9.25319V19.9869H51.0898V9.25319H53.6129ZM36.1687 5.00843L40.5643 16.1357L45.0933 5.00843H48.6556V19.9869H46.081V8.46139H45.9991L41.4303 19.9869H39.6046L34.961 8.46139H34.8791V19.9869H32.4589V5.00843H36.1687ZM98.0625 11.0851C97.1497 11.0851 96.4241 11.3966 95.9092 12.0127C95.3919 12.6335 95.1298 13.5237 95.1298 14.6599C95.1298 15.7687 95.3896 16.6292 95.9092 17.2414C96.4241 17.8504 97.1567 18.155 98.0836 18.155C99.0151 18.155 99.729 17.8551 100.204 17.2601C100.682 16.6604 100.923 15.7656 100.923 14.5989C100.923 13.4487 100.665 12.5632 100.157 11.9729C99.6541 11.3826 98.9473 11.0851 98.0625 11.0851ZM77.606 11.0827C76.6932 11.0827 75.9676 11.3943 75.4527 12.0104C74.9354 12.6312 74.6709 13.5214 74.6709 14.6575C74.6709 15.7663 74.9315 16.6268 75.4527 17.239C75.9707 17.8481 76.6948 18.1526 77.6247 18.1526C78.561 18.1526 79.2678 17.8544 79.7453 17.2578C80.2228 16.6581 80.4662 15.7632 80.4662 14.5966C80.4662 13.4464 80.2087 12.5609 79.7008 11.9706C79.1921 11.3787 78.4931 11.082 77.6037 11.0804M11.8666 0V11.8792H0V0H11.8666ZM24.9715 0V11.8792H13.1048V0H24.9715ZM52.3771 4.67579C52.8156 4.67735 53.1815 4.82181 53.4748 5.10916C53.6159 5.24312 53.7277 5.40495 53.803 5.58439C53.8784 5.76384 53.9156 5.95699 53.9125 6.15161C53.9167 6.34597 53.8785 6.53891 53.8004 6.71694C53.7224 6.89498 53.6065 7.05381 53.4608 7.18235C53.1654 7.45328 52.7777 7.6008 52.3771 7.59464C51.978 7.60265 51.5913 7.45573 51.2981 7.18469C51.1546 7.05426 51.0406 6.89457 50.9639 6.71637C50.8872 6.53818 50.8495 6.3456 50.8534 6.15161C50.8534 5.73307 51.0032 5.38168 51.3028 5.09745C51.5917 4.82115 51.9776 4.66968 52.3771 4.67579Z" fill="black"/>
</svg>
