<svg role="img" viewBox="0 0 64 64" xmlns="http://www.w3.org/2000/svg" id="Comptia--Streamline-Simple-Icons" height="64" width="64">
  <desc>
    Comptia Streamline Icon: https://streamlinehq.com
  </desc>
  <title>CompTIA</title>
  <path d="M31.544533333333334 31.217866666666666v4.939733333333333a1.6213333333333333 1.6213333333333333 0 0 1 -1.6042666666666667 -1.6362666666666668v-3.2975999999999996a1.5274666666666665 1.5274666666666665 0 0 0 -3.0474666666666668 0v4.933866666666667a1.5968 1.5968 0 0 1 -1.5994666666666666 -1.5941333333333332v-3.339733333333333a1.5322666666666667 1.5322666666666667 0 0 0 -3.0546666666666664 0v3.3149333333333333a1.6213333333333333 1.6213333333333333 0 0 1 -1.5994666666666666 1.6189333333333331V31.223999999999997c0.025866666666666666 -1.6938666666666666 1.42 -3.045866666666667 3.1136 -3.02h0.0034666666666666665c0.8826666666666667 -0.012266666666666665 1.7295999999999998 0.3472 2.3343999999999996 0.9901333333333333a3.1338666666666666 3.1338666666666666 0 0 1 2.3146666666666667 -0.9901333333333333c1.6991999999999998 -0.034666666666666665 3.104533333333333 1.3146666666666667 3.1391999999999998 3.0141333333333336zm18.708266666666667 -6.1112v9.501333333333333a1.5919999999999999 1.5919999999999999 0 0 0 1.6016 1.5495999999999999v-9.501333333333333a1.5917333333333332 1.5917333333333332 0 0 0 -1.6016 -1.5495999999999999zM64 36.068799999999996c-0.864 0.07173333333333333 -1.8 -0.18586666666666665 -2.1362666666666668 -0.916l-0.8493333333333333 -1.8272h-5.6815999999999995l-0.8418666666666665 1.8765333333333332c-0.3984 0.7426666666666667 -1.4506666666666668 0.9778666666666667 -2.2602666666666664 0.9778666666666667l4.634666666666666 -10.150133333333333a1.4112 1.4112 0 0 1 1.2698666666666667 -0.916 1.4311999999999998 1.4311999999999998 0 0 1 1.2826666666666666 0.916L64 36.068799999999996zm-3.6690666666666663 -4.3152 -2.1490666666666662 -4.712266666666666 -2.1434666666666664 4.712h4.292533333333333zm-51.10933333333333 1.7032a4.923466666666666 4.923466666666666 0 0 1 -3.1512 1.1661333333333332c-2.4832 0 -4.503466666666666 -1.8197333333333332 -4.503466666666666 -4.035466666666666s2.027733333333333 -4.015466666666667 4.503466666666666 -4.015466666666667c1.3359999999999999 0.0005333333333333334 2.6133333333333333 0.5479999999999999 3.5352 1.5152a1.5498666666666667 1.5498666666666667 0 0 0 1.9778666666666667 0.2205333333333333c-0.9653333333333333 -2.0005333333333333 -3.1367999999999996 -3.3002666666666665 -5.518133333333333 -3.3002666666666665C2.7232000000000003 25.007466666666666 0 27.510399999999997 0 30.592533333333336c0 3.082133333333333 2.7133333333333334 5.587466666666666 6.065333333333333 5.587466666666666a6.358933333333333 6.358933333333333 0 0 0 3.436 -0.9901333333333333c0.6946666666666667 -0.432 1.2861333333333334 -1.0106666666666666 1.7330666666666668 -1.696a1.5695999999999999 1.5695999999999999 0 0 0 -2.0128 -0.037066666666666664zm30.479999999999997 -6.770666666666667h3.433866666666667v7.869866666666667a1.5744 1.5744 0 0 0 1.5274666666666665 1.6016h0.07413333333333333v-9.471466666666666h3.424a1.5842666666666665 1.5842666666666665 0 0 0 1.5818666666666665 -1.5818666666666665h-11.6008a1.5744 1.5744 0 0 0 1.5594666666666666 1.5818666666666665zm-19.495466666666665 5.510666666666666c0 2.2304 -1.936 3.9608 -4.401866666666667 3.9608 -2.4754666666666667 0 -4.4013333333333335 -1.7328000000000001 -4.4013333333333335 -3.9608s1.9333333333333331 -3.9858666666666664 4.4013333333333335 -3.9858666666666664c2.4682666666666666 0 4.401866666666667 1.7554666666666665 4.401866666666667 3.9858666666666664zm-1.6018666666666665 -0.007466666666666667c0 -1.3343999999999998 -1.2376 -2.384 -2.8 -2.384 -1.5669333333333333 0 -2.8023999999999996 1.0472 -2.8023999999999996 2.384 0 1.3367999999999998 1.2381333333333333 2.3666666666666663 2.802666666666666 2.3666666666666663s2.8 -1.032 2.8 -2.3666666666666663zm18.126666666666665 -4.000533333333333c-2.534933333333333 0 -4.372 1.7154666666666665 -4.372 4.047466666666667v6.756a1.5893333333333333 1.5893333333333333 0 0 0 1.6042666666666667 -1.5618666666666665v-5.198933333333333c0 -1.6834666666666664 1.3765333333333332 -2.4458666666666664 2.768 -2.4458666666666664 1.4629333333333332 0 2.616533333333333 1.0618666666666665 2.616533333333333 2.4135999999999997 0 1.2997333333333332 -1.1536 2.3343999999999996 -2.6167999999999996 2.3343999999999996 -0.9829333333333332 0 -1.7205333333333332 -0.24746666666666664 -2.1685333333333334 -0.7426666666666667v0.014933333333333333a2.0008 2.0008 0 0 0 -0.1016 0.2848 1.5893333333333333 1.5893333333333333 0 0 0 1.0965333333333334 1.9309333333333332c0.38986666666666664 0.08373333333333333 0.7874666666666666 0.12346666666666667 1.1858666666666666 0.11893333333333334 2.369333333333333 0 4.215999999999999 -1.7354666666666667 4.196266666666666 -3.9362666666666666a3.9058666666666664 3.9058666666666664 0 0 0 -1.2378666666666667 -2.8666666666666663 4.378666666666666 4.378666666666666 0 0 0 -2.970666666666667 -1.1488z" fill="#000000" stroke-width="2.6667"></path>
</svg>