<svg width="232" height="48" viewBox="0 0 232 48" fill="none" xmlns="http://www.w3.org/2000/svg">
<path fill-rule="evenodd" clip-rule="evenodd" d="M35.3719 14V22.0492H25.4022V19.7565L35.3719 14Z" fill="black"/>
<path opacity="0.9" fill-rule="evenodd" clip-rule="evenodd" d="M35.3699 14.0001L25.4001 19.7566L18.0488 15.513V4L35.3699 14.0001Z" fill="black"/>
<path opacity="0.8" fill-rule="evenodd" clip-rule="evenodd" d="M18.0512 4V15.513L10.7022 19.7566L0.732422 14.0001L18.0512 4Z" fill="black"/>
<path opacity="0.7" fill-rule="evenodd" clip-rule="evenodd" d="M10.7004 19.7565V28.2434L0.730713 33.9994V14.0001L10.7004 19.7565Z" fill="black"/>
<path opacity="0.6" fill-rule="evenodd" clip-rule="evenodd" d="M18.0494 32.487V44L0.730713 33.9994L10.7004 28.2434L18.0494 32.487Z" fill="black"/>
<path opacity="0.5" fill-rule="evenodd" clip-rule="evenodd" d="M35.3699 33.9994L18.0488 44V32.4871L25.4001 28.2434L35.3699 33.9994Z" fill="black"/>
<path opacity="0.4" fill-rule="evenodd" clip-rule="evenodd" d="M35.372 25.9507V33.9994L25.4022 28.2434V25.9507H35.372Z" fill="black"/>
<path d="M79.8274 20.5433H75.843C75.7294 19.8899 75.5199 19.3111 75.2145 18.8068C74.9091 18.2955 74.5291 17.8622 74.0746 17.5071C73.62 17.152 73.1016 16.8857 72.5192 16.7081C71.9439 16.5234 71.3224 16.4311 70.6548 16.4311C69.4688 16.4311 68.4176 16.7294 67.5014 17.326C66.5852 17.9155 65.8679 18.782 65.3494 19.9254C64.831 21.0618 64.5717 22.4503 64.5717 24.0909C64.5717 25.7599 64.831 27.1662 65.3494 28.3097C65.875 29.446 66.5923 30.3054 67.5014 30.8878C68.4176 31.4631 69.4652 31.7507 70.6442 31.7507C71.2976 31.7507 71.9084 31.6655 72.4766 31.495C73.0518 31.3175 73.5668 31.0582 74.0213 30.7173C74.483 30.3764 74.87 29.9574 75.1825 29.4602C75.5021 28.9631 75.7223 28.3949 75.843 27.7557L79.8274 27.777C79.6783 28.8139 79.3551 29.7869 78.858 30.696C78.3679 31.6051 77.7251 32.4077 76.9297 33.1037C76.1342 33.7926 75.2038 34.3324 74.1385 34.723C73.0732 35.1065 71.8906 35.2983 70.5909 35.2983C68.6733 35.2983 66.9616 34.8544 65.456 33.9666C63.9503 33.0788 62.7642 31.7969 61.8977 30.1207C61.0313 28.4446 60.598 26.4347 60.598 24.0909C60.598 21.7401 61.0348 19.7301 61.9084 18.0611C62.782 16.3849 63.9716 15.103 65.4773 14.2152C66.983 13.3274 68.6875 12.8835 70.5909 12.8835C71.8054 12.8835 72.9347 13.054 73.9787 13.3949C75.0227 13.7358 75.9531 14.2365 76.7699 14.897C77.5866 15.5504 78.2578 16.353 78.7834 17.3047C79.3161 18.2493 79.6641 19.3288 79.8274 20.5433ZM90.2958 35.3196C88.6551 35.3196 87.2382 34.9787 86.0451 34.2969C84.859 33.608 83.9463 32.6349 83.3071 31.3778C82.6679 30.1136 82.3483 28.6257 82.3483 26.9141C82.3483 25.2308 82.6679 23.7536 83.3071 22.4822C83.9534 21.2038 84.8554 20.2095 86.0131 19.4993C87.1708 18.782 88.5309 18.4233 90.0934 18.4233C91.1019 18.4233 92.0536 18.5866 92.9485 18.9134C93.8505 19.233 94.6459 19.7301 95.3348 20.4048C96.0309 21.0795 96.5777 21.9389 96.9755 22.983C97.3732 24.0199 97.5721 25.2557 97.5721 26.6903V27.8729H84.1594V25.2734H93.8753C93.8682 24.5348 93.7084 23.8778 93.3959 23.3026C93.0834 22.7202 92.6466 22.2621 92.0855 21.9283C91.5316 21.5945 90.8853 21.4276 90.1466 21.4276C89.3583 21.4276 88.6658 21.6193 88.0692 22.0028C87.4726 22.3793 87.0074 22.8764 86.6736 23.4943C86.3469 24.1051 86.18 24.7763 86.1729 25.5078V27.777C86.1729 28.7287 86.3469 29.5455 86.6949 30.2273C87.0429 30.902 87.5294 31.4205 88.1544 31.7827C88.7794 32.1378 89.511 32.3153 90.349 32.3153C90.9101 32.3153 91.4179 32.2372 91.8725 32.081C92.327 31.9176 92.7212 31.6797 93.055 31.3672C93.3888 31.0547 93.6409 30.6676 93.8114 30.206L97.4123 30.6108C97.185 31.5625 96.7517 32.3935 96.1125 33.1037C95.4804 33.8068 94.6708 34.3537 93.6836 34.7443C92.6963 35.1278 91.5671 35.3196 90.2958 35.3196ZM100.61 35V18.6364H104.349V21.3636H104.519C104.818 20.419 105.329 19.6911 106.054 19.1797C106.785 18.6612 107.62 18.402 108.557 18.402C108.77 18.402 109.008 18.4126 109.271 18.4339C109.541 18.4482 109.764 18.473 109.942 18.5085V22.0561C109.779 21.9993 109.519 21.9496 109.164 21.907C108.816 21.8572 108.479 21.8324 108.152 21.8324C107.449 21.8324 106.817 21.9851 106.256 22.2905C105.702 22.5888 105.265 23.0043 104.946 23.5369C104.626 24.0696 104.466 24.6839 104.466 25.38V35H100.61ZM121.329 18.6364V21.6193H111.922V18.6364H121.329ZM114.245 14.7159H118.101V30.0781C118.101 30.5966 118.179 30.9943 118.336 31.2713C118.499 31.5412 118.712 31.7259 118.975 31.8253C119.238 31.9247 119.529 31.9744 119.848 31.9744C120.09 31.9744 120.31 31.9567 120.509 31.9212C120.715 31.8857 120.871 31.8537 120.978 31.8253L121.628 34.8402C121.422 34.9112 121.127 34.9893 120.743 35.0746C120.367 35.1598 119.905 35.2095 119.358 35.2237C118.392 35.2521 117.522 35.1065 116.748 34.7869C115.974 34.4602 115.36 33.956 114.905 33.2741C114.458 32.5923 114.238 31.7401 114.245 30.7173V14.7159ZM124.33 35V18.6364H128.186V35H124.33ZM126.269 16.3139C125.658 16.3139 125.132 16.1115 124.692 15.7067C124.251 15.2947 124.031 14.8011 124.031 14.2259C124.031 13.6435 124.251 13.1499 124.692 12.745C125.132 12.3331 125.658 12.1271 126.269 12.1271C126.886 12.1271 127.412 12.3331 127.845 12.745C128.286 13.1499 128.506 13.6435 128.506 14.2259C128.506 14.8011 128.286 15.2947 127.845 15.7067C127.412 16.1115 126.886 16.3139 126.269 16.3139ZM140.215 18.6364V21.6193H130.542V18.6364H140.215ZM132.96 35V17.0916C132.96 15.9908 133.188 15.0746 133.642 14.343C134.104 13.6115 134.722 13.0646 135.496 12.7024C136.27 12.3402 137.129 12.1591 138.074 12.1591C138.741 12.1591 139.335 12.2124 139.853 12.3189C140.371 12.4254 140.755 12.5213 141.004 12.6065L140.237 15.5895C140.073 15.5398 139.867 15.4901 139.619 15.4403C139.37 15.3835 139.093 15.3551 138.788 15.3551C138.07 15.3551 137.563 15.5291 137.264 15.8771C136.973 16.218 136.827 16.7081 136.827 17.3473V35H132.96ZM145.407 41.1364C144.882 41.1364 144.395 41.0938 143.948 41.0085C143.508 40.9304 143.156 40.8381 142.893 40.7315L143.788 37.7273C144.349 37.8906 144.85 37.9688 145.29 37.9616C145.731 37.9545 146.118 37.8161 146.451 37.5462C146.792 37.2834 147.08 36.843 147.314 36.2251L147.645 35.3409L141.711 18.6364H145.802L149.573 30.9943H149.743L153.525 18.6364H157.627L151.075 36.9815C150.77 37.848 150.365 38.5902 149.861 39.2081C149.356 39.8331 148.738 40.3089 148.007 40.6357C147.282 40.9695 146.416 41.1364 145.407 41.1364ZM167.457 35V13.1818H175.639C177.315 13.1818 178.722 13.4943 179.858 14.1193C181.001 14.7443 181.864 15.6037 182.447 16.6974C183.036 17.7841 183.331 19.0199 183.331 20.4048C183.331 21.804 183.036 23.0469 182.447 24.1335C181.857 25.2202 180.987 26.076 179.837 26.701C178.686 27.3189 177.269 27.6278 175.586 27.6278H170.163V24.3786H175.053C176.033 24.3786 176.836 24.2081 177.461 23.8672C178.086 23.5263 178.548 23.0575 178.846 22.4609C179.151 21.8643 179.304 21.179 179.304 20.4048C179.304 19.6307 179.151 18.9489 178.846 18.3594C178.548 17.7699 178.082 17.3118 177.45 16.9851C176.825 16.6513 176.019 16.4844 175.032 16.4844H171.41V35H167.457ZM186.369 35V18.6364H190.108V21.3636H190.278C190.577 20.419 191.088 19.6911 191.813 19.1797C192.544 18.6612 193.379 18.402 194.316 18.402C194.529 18.402 194.767 18.4126 195.03 18.4339C195.3 18.4482 195.523 18.473 195.701 18.5085V22.0561C195.538 21.9993 195.278 21.9496 194.923 21.907C194.575 21.8572 194.238 21.8324 193.911 21.8324C193.208 21.8324 192.576 21.9851 192.015 22.2905C191.461 22.5888 191.024 23.0043 190.705 23.5369C190.385 24.0696 190.225 24.6839 190.225 25.38V35H186.369ZM204.609 35.3196C202.968 35.3196 201.551 34.9787 200.358 34.2969C199.172 33.608 198.259 32.6349 197.62 31.3778C196.981 30.1136 196.661 28.6257 196.661 26.9141C196.661 25.2308 196.981 23.7536 197.62 22.4822C198.266 21.2038 199.168 20.2095 200.326 19.4993C201.484 18.782 202.844 18.4233 204.406 18.4233C205.415 18.4233 206.366 18.5866 207.261 18.9134C208.163 19.233 208.959 19.7301 209.648 20.4048C210.344 21.0795 210.891 21.9389 211.288 22.983C211.686 24.0199 211.885 25.2557 211.885 26.6903V27.8729H198.472V25.2734H208.188C208.181 24.5348 208.021 23.8778 207.709 23.3026C207.396 22.7202 206.96 22.2621 206.398 21.9283C205.844 21.5945 205.198 21.4276 204.46 21.4276C203.671 21.4276 202.979 21.6193 202.382 22.0028C201.786 22.3793 201.32 22.8764 200.987 23.4943C200.66 24.1051 200.493 24.7763 200.486 25.5078V27.777C200.486 28.7287 200.66 29.5455 201.008 30.2273C201.356 30.902 201.842 31.4205 202.467 31.7827C203.092 32.1378 203.824 32.3153 204.662 32.3153C205.223 32.3153 205.731 32.2372 206.185 32.081C206.64 31.9176 207.034 31.6797 207.368 31.3672C207.702 31.0547 207.954 30.6676 208.124 30.206L211.725 30.6108C211.498 31.5625 211.065 32.3935 210.425 33.1037C209.793 33.8068 208.984 34.3537 207.996 34.7443C207.009 35.1278 205.88 35.3196 204.609 35.3196ZM214.923 41.1364V18.6364H218.715V21.3423H218.939C219.138 20.9446 219.418 20.522 219.78 20.0746C220.143 19.62 220.633 19.233 221.251 18.9134C221.869 18.5866 222.657 18.4233 223.616 18.4233C224.88 18.4233 226.02 18.7464 227.035 19.3928C228.058 20.032 228.868 20.9801 229.464 22.2372C230.068 23.4872 230.37 25.0213 230.37 26.8395C230.37 28.6364 230.075 30.1634 229.486 31.4205C228.896 32.6776 228.094 33.6364 227.078 34.2969C226.062 34.9574 224.912 35.2876 223.626 35.2876C222.689 35.2876 221.911 35.1314 221.293 34.8189C220.675 34.5064 220.178 34.13 219.802 33.6896C219.432 33.2422 219.145 32.8196 218.939 32.4219H218.779V41.1364H214.923ZM218.705 26.8182C218.705 27.8764 218.854 28.8033 219.152 29.5987C219.457 30.3942 219.894 31.0156 220.462 31.4631C221.038 31.9034 221.734 32.1236 222.55 32.1236C223.403 32.1236 224.116 31.8963 224.692 31.4418C225.267 30.9801 225.7 30.3516 225.991 29.5561C226.29 28.7536 226.439 27.8409 226.439 26.8182C226.439 25.8026 226.293 24.9006 226.002 24.1122C225.711 23.3239 225.278 22.706 224.702 22.2585C224.127 21.8111 223.41 21.5874 222.55 21.5874C221.727 21.5874 221.027 21.804 220.452 22.2372C219.876 22.6705 219.44 23.2777 219.141 24.0589C218.85 24.8402 218.705 25.7599 218.705 26.8182Z" fill="#0F172A"/>
</svg>
