<?xml version="1.0" encoding="utf-8"?>
<!-- Generator: Adobe Illustrator 17.0.0, SVG Export Plug-In . SVG Version: 6.00 Build 0)  -->
<!DOCTYPE svg PUBLIC "-//W3C//DTD SVG 1.1//EN" "http://www.w3.org/Graphics/SVG/1.1/DTD/svg11.dtd">
<svg version="1.1" id="Layer_1" xmlns="http://www.w3.org/2000/svg" xmlns:xlink="http://www.w3.org/1999/xlink" x="0px" y="0px"
	 width="392.507px" height="392.507px" viewBox="0 0 392.507 392.507" enable-background="new 0 0 392.507 392.507"
	 xml:space="preserve">
<g>
	<circle fill="#2C3E50" cx="196.254" cy="196.254" r="196.254"/>
	<circle id="Dalam_1_" fill="#35495E" cx="196.254" cy="196.254" r="185.507"/>
	<g>
		<path fill="#FFFFFF" d="M168.175,114.264c-1.78,0-3.292-0.623-4.538-1.869c-1.246-1.246-1.868-2.751-1.868-4.517V93.272
			c0-1.779,0.626-3.292,1.879-4.538c1.253-1.246,2.762-1.869,4.527-1.869c1.779,0,3.289,0.627,4.527,1.879
			c1.239,1.253,1.858,2.762,1.858,4.527v3.054h-4.186v-3.139c0-0.641-0.228-1.188-0.683-1.644s-1.004-0.684-1.645-0.684
			s-1.185,0.228-1.633,0.684c-0.449,0.456-0.673,1.003-0.673,1.644v14.649c0,0.641,0.224,1.185,0.673,1.633
			c0.448,0.449,0.993,0.673,1.633,0.673s1.189-0.224,1.645-0.673c0.456-0.448,0.683-0.993,0.683-1.633v-3.694h4.186v3.737
			c0,1.78-0.626,3.289-1.879,4.527C171.428,113.644,169.926,114.264,168.175,114.264z"/>
		<path fill="#FFFFFF" d="M181.905,113.922h-4.036V87.165h4.036V113.922z"/>
		<path fill="#FFFFFF" d="M198.625,107.26c0.029,1.865-0.455,3.459-1.452,4.783c-0.655,0.897-1.58,1.531-2.776,1.901
			c-0.641,0.199-1.388,0.299-2.242,0.299c-1.58,0-2.89-0.392-3.929-1.174c-0.869-0.641-1.556-1.513-2.061-2.616
			c-0.506-1.103-0.801-2.367-0.886-3.791l3.844-0.277c0.171,1.56,0.583,2.69,1.238,3.391c0.484,0.53,1.039,0.78,1.666,0.751
			c0.882-0.028,1.587-0.463,2.114-1.304c0.271-0.413,0.406-1.004,0.406-1.774c0-1.111-0.505-2.216-1.516-3.313
			c-0.797-0.755-1.993-1.888-3.587-3.398c-1.338-1.296-2.285-2.458-2.84-3.484c-0.598-1.154-0.897-2.408-0.897-3.762
			c0-2.437,0.819-4.282,2.456-5.536c1.011-0.755,2.264-1.133,3.758-1.133c1.438,0,2.669,0.32,3.694,0.961
			c0.797,0.499,1.441,1.196,1.932,2.093c0.492,0.897,0.787,1.929,0.887,3.096l-3.865,0.705c-0.114-1.096-0.427-1.95-0.939-2.562
			c-0.371-0.441-0.904-0.662-1.602-0.662c-0.741,0-1.303,0.328-1.687,0.982c-0.313,0.527-0.47,1.182-0.47,1.965
			c0,1.225,0.527,2.47,1.581,3.737c0.398,0.484,0.996,1.054,1.793,1.708c0.94,0.783,1.559,1.331,1.858,1.644
			c0.997,0.997,1.765,1.979,2.306,2.947c0.256,0.456,0.463,0.875,0.619,1.26C198.412,105.651,198.611,106.505,198.625,107.26z"/>
		<path fill="#FFFFFF" d="M208.319,114.264c-1.779,0-3.292-0.623-4.537-1.869c-1.246-1.246-1.869-2.751-1.869-4.517V93.272
			c0-1.779,0.627-3.292,1.88-4.538c1.252-1.246,2.762-1.869,4.526-1.869c1.78,0,3.289,0.627,4.527,1.879
			c1.238,1.253,1.858,2.762,1.858,4.527v3.054h-4.186v-3.139c0-0.641-0.229-1.188-0.684-1.644c-0.456-0.456-1.004-0.684-1.645-0.684
			s-1.185,0.228-1.634,0.684c-0.448,0.456-0.672,1.003-0.672,1.644v14.649c0,0.641,0.224,1.185,0.672,1.633
			c0.449,0.449,0.993,0.673,1.634,0.673s1.188-0.224,1.645-0.673c0.455-0.448,0.684-0.993,0.684-1.633v-3.694h4.186v3.737
			c0,1.78-0.627,3.289-1.88,4.527C211.572,113.644,210.071,114.264,208.319,114.264z"/>
		<path fill="#FFFFFF" d="M224.336,86.823c1.779,0,3.291,0.626,4.537,1.879c1.246,1.253,1.869,2.762,1.869,4.527v14.606
			c0,1.78-0.627,3.292-1.88,4.538c-1.253,1.246-2.762,1.869-4.526,1.869c-1.78,0-3.289-0.626-4.527-1.879
			c-1.239-1.252-1.858-2.762-1.858-4.527V93.23c0-1.779,0.627-3.292,1.88-4.538C221.082,87.447,222.584,86.823,224.336,86.823z
			 M226.535,93.144c0-0.641-0.225-1.185-0.673-1.634c-0.448-0.448-0.993-0.672-1.634-0.672s-1.188,0.224-1.645,0.672
			c-0.455,0.449-0.683,0.993-0.683,1.634v14.649c0,0.641,0.228,1.186,0.683,1.634c0.456,0.448,1.004,0.673,1.645,0.673
			s1.186-0.225,1.634-0.673s0.673-0.993,0.673-1.634V93.144z"/>
		<path fill="#FFFFFF" d="M143.468,150.344c-1.78,0-3.292-0.623-4.538-1.869c-1.246-1.246-1.868-2.751-1.868-4.517v-14.606
			c0-1.779,0.626-3.292,1.879-4.538c1.253-1.246,2.762-1.869,4.527-1.869c1.779,0,3.289,0.627,4.527,1.879
			c1.239,1.253,1.858,2.762,1.858,4.527v3.054h-4.186v-3.139c0-0.641-0.228-1.188-0.683-1.644s-1.004-0.684-1.645-0.684
			s-1.185,0.228-1.633,0.684c-0.449,0.456-0.673,1.003-0.673,1.644v14.649c0,0.641,0.224,1.185,0.673,1.633
			c0.448,0.449,0.993,0.673,1.633,0.673s1.189-0.224,1.645-0.673c0.456-0.448,0.683-0.993,0.683-1.633v-3.694h4.186v3.737
			c0,1.78-0.626,3.289-1.879,4.527C146.721,149.725,145.219,150.344,143.468,150.344z"/>
		<path fill="#FFFFFF" d="M153.162,150.003v-26.778h11.489v4.057h-7.453v7.303h5.446v4.058h-5.446v7.303h7.453v4.057H153.162z"/>
		<path fill="#FFFFFF" d="M173.79,123.245c2.25,0,3.901,0.62,4.955,1.858c0.925,1.082,1.388,2.591,1.388,4.527v3.886
			c0,1.894-0.719,3.495-2.157,4.805l2.989,11.681H176.6l-2.447-10.079c-0.114,0-0.235,0-0.363,0h-2.328v10.079h-4.036v-26.757
			H173.79z M176.203,129.695c0-1.551-0.769-2.328-2.306-2.328h-2.435v8.563h2.435c0.641,0,1.185-0.228,1.634-0.683
			c0.448-0.456,0.672-1.004,0.672-1.645V129.695z"/>
		<path fill="#FFFFFF" d="M187.393,127.303h-4.292v-4.058H195.7v4.058h-4.271v22.7h-4.036V127.303z"/>
		<path fill="#FFFFFF" d="M202.981,150.003h-4.036v-26.757h4.036V150.003z"/>
		<path fill="#FFFFFF" d="M210.626,150.003h-4.036v-26.778h11.489v4.057h-7.453v7.303h5.445v4.058h-5.445V150.003z"/>
		<path fill="#FFFFFF" d="M224.89,150.003h-4.036v-26.757h4.036V150.003z"/>
		<path fill="#FFFFFF" d="M228.5,150.003v-26.778h11.489v4.057h-7.453v7.303h5.445v4.058h-5.445v7.303h7.453v4.057H228.5z"/>
		<path fill="#FFFFFF" d="M255.449,143.596c0,1.765-0.619,3.274-1.857,4.527c-1.238,1.253-2.733,1.879-4.484,1.879h-6.343v-26.778
			h6.343c1.765,0,3.264,0.626,4.495,1.879c1.231,1.253,1.847,2.755,1.847,4.506V143.596z M246.801,146.01h2.435
			c0.641,0,1.182-0.231,1.623-0.694c0.441-0.462,0.662-1.007,0.662-1.633v-14.009c0-0.641-0.225-1.188-0.673-1.644
			s-0.986-0.684-1.612-0.684h-2.435V146.01z"/>
	</g>
	<g>
		<rect x="73.571" y="161.781" fill="#FFFFFF" width="245.365" height="2"/>
	</g>
	<g>
		<rect x="103.646" y="247.219" fill="#FFFFFF" width="185.215" height="2"/>
	</g>
	<g>
		<path fill="#FFFFFF" d="M113.227,239.029c-2.669,0-4.918-0.914-6.746-2.743c-1.829-1.827-2.743-4.077-2.743-6.746v-47.444
			c0-2.619,0.914-4.843,2.743-6.672c1.828-1.877,4.077-2.817,6.746-2.817h28.466v9.489h-28.466v47.444h28.466v9.489H113.227z"/>
		<path fill="#FFFFFF" d="M160.671,239.029c-2.669,0-4.918-0.914-6.746-2.743c-1.829-1.827-2.743-4.077-2.743-6.746v-47.444
			c0-2.619,0.914-4.843,2.743-6.672c1.828-1.877,4.077-2.817,6.746-2.817h28.466v9.489h-28.466v47.444h28.466v9.489H160.671z"/>
		<path fill="#FFFFFF" d="M198.627,239.029v-66.422h9.488l23.723,47.444v-47.444h9.488v66.422h-9.488l-23.723-47.444v47.444H198.627
			z"/>
		<path fill="#FFFFFF" d="M250.815,239.029v-66.422h28.467c2.619,0,4.843,0.939,6.672,2.817c1.878,1.829,2.816,4.053,2.816,6.672
			v18.978c0,2.669-0.938,4.918-2.816,6.746c-1.829,1.829-4.053,2.742-6.672,2.742h-18.978v28.467H250.815z M279.282,201.074v-18.978
			h-18.978v18.978H279.282z"/>
	</g>
	<g>
		<path fill="#FFFFFF" d="M161.979,275.479c0.021,1.4-0.342,2.599-1.091,3.593c-0.492,0.674-1.187,1.15-2.085,1.428
			c-0.481,0.15-1.043,0.225-1.685,0.225c-1.187,0-2.171-0.294-2.952-0.882c-0.653-0.481-1.169-1.137-1.548-1.966
			c-0.38-0.828-0.602-1.777-0.666-2.847l2.888-0.209c0.128,1.172,0.438,2.021,0.93,2.548c0.364,0.397,0.781,0.586,1.251,0.564
			c0.663-0.021,1.192-0.348,1.588-0.979c0.203-0.311,0.305-0.755,0.305-1.333c0-0.835-0.38-1.664-1.139-2.488
			c-0.599-0.567-1.498-1.419-2.695-2.554c-1.005-0.974-1.716-1.847-2.133-2.617c-0.449-0.867-0.674-1.809-0.674-2.826
			c0-1.83,0.615-3.217,1.845-4.158c0.759-0.567,1.701-0.852,2.824-0.852c1.08,0,2.005,0.241,2.775,0.722
			c0.599,0.375,1.083,0.898,1.452,1.572s0.591,1.45,0.666,2.326l-2.904,0.529c-0.086-0.823-0.321-1.465-0.706-1.925
			c-0.278-0.331-0.679-0.497-1.203-0.497c-0.556,0-0.979,0.246-1.268,0.738c-0.235,0.396-0.353,0.888-0.353,1.476
			c0,0.92,0.396,1.855,1.187,2.808c0.299,0.363,0.749,0.791,1.348,1.283c0.706,0.588,1.171,1,1.396,1.235
			c0.749,0.749,1.326,1.486,1.733,2.214c0.192,0.343,0.347,0.658,0.465,0.946C161.819,274.27,161.969,274.912,161.979,275.479z"/>
		<path fill="#FFFFFF" d="M164.498,280.484v-20.117h8.631v3.048h-5.599v5.486h4.091v3.048h-4.091v5.487h5.599v3.048H164.498z"/>
		<path fill="#FFFFFF" d="M180.027,280.741c-1.337,0-2.473-0.468-3.409-1.404c-0.936-0.936-1.403-2.066-1.403-3.393V264.97
			c0-1.337,0.47-2.473,1.412-3.409c0.941-0.936,2.075-1.403,3.401-1.403c1.337,0,2.471,0.471,3.401,1.412
			c0.93,0.941,1.396,2.075,1.396,3.4v2.295h-3.145v-2.358c0-0.481-0.171-0.894-0.513-1.235c-0.342-0.343-0.754-0.514-1.235-0.514
			s-0.89,0.171-1.227,0.514c-0.337,0.342-0.505,0.754-0.505,1.235v11.005c0,0.481,0.168,0.891,0.505,1.228s0.746,0.505,1.227,0.505
			s0.893-0.168,1.235-0.505s0.513-0.746,0.513-1.228v-2.775h3.145v2.808c0,1.337-0.471,2.471-1.412,3.401
			C182.47,280.275,181.342,280.741,180.027,280.741z"/>
		<path fill="#FFFFFF" d="M192.091,280.709c-1.337,0-2.47-0.465-3.401-1.396s-1.396-2.059-1.396-3.385v-15.546h2.968v15.514
			c0,0.48,0.171,0.89,0.513,1.227s0.754,0.506,1.235,0.506s0.891-0.169,1.228-0.506s0.505-0.746,0.505-1.227v-15.514h3.16v15.546
			c0,1.347-0.471,2.48-1.412,3.4C194.551,280.249,193.417,280.709,192.091,280.709z"/>
		<path fill="#FFFFFF" d="M204.378,260.383c1.69,0,2.931,0.465,3.723,1.396c0.694,0.813,1.042,1.947,1.042,3.401v2.92
			c0,1.422-0.54,2.626-1.62,3.609l2.246,8.775h-3.279l-1.838-7.572c-0.086,0-0.177,0-0.273,0h-1.748v7.572h-3.032v-20.102H204.378z
			 M206.192,265.227c0-1.165-0.578-1.748-1.733-1.748h-1.828v6.433h1.828c0.481,0,0.891-0.171,1.228-0.514
			c0.337-0.342,0.506-0.754,0.506-1.235V265.227z"/>
		<path fill="#FFFFFF" d="M215.4,280.484h-3.032v-20.102h3.032V280.484z"/>
		<path fill="#FFFFFF" d="M221.063,263.43h-3.225v-3.048h9.465v3.048h-3.208v17.054h-3.032V263.43z"/>
		<path fill="#FFFFFF" d="M233.448,272.061l-4.059-11.694h3.337l2.246,7.219l2.229-7.219h3.354l-4.075,11.694v8.423h-3.032V272.061z
			"/>
	</g>
	<g id="Sayap_1_">
		<path fill="#FFFFFF" d="M278.254,284.92c0,0,79-64.333,69-179c0,0,9.866,10.631,12.333,23
			C361.961,140.819,362.587,224.254,278.254,284.92z"/>
		<path fill="#FFFFFF" d="M255.252,316.92c0,0,96.335-42.667,112.668-158c0,0,6.819,12.333,6.667,26
			C374.452,197.053,352.252,288.92,255.252,316.92z"/>
		<path fill="#FFFFFF" d="M305.587,230.254c0,0,43-64.333,11.667-150c0,0,8.54,4.234,13.784,14.961
			C336.367,106.115,351.254,162.78,305.587,230.254z"/>
		<path fill="#FFFFFF" d="M114.923,284.92c0,0-79-64.333-69-179c0,0-9.866,10.631-12.333,23
			C31.216,140.819,30.59,224.254,114.923,284.92z"/>
		<path fill="#FFFFFF" d="M137.255,316.92c0,0-95.665-42.667-111.999-158c0,0-6.819,12.333-6.667,26
			C18.725,197.053,40.255,288.92,137.255,316.92z"/>
		<path fill="#FFFFFF" d="M87.59,230.254c0,0-43-64.333-11.667-150c0,0-8.54,4.234-13.784,14.961
			C56.81,106.115,41.923,162.78,87.59,230.254z"/>
	</g>
</g>
</svg>
