<?xml version="1.0" encoding="utf-8"?>
<!-- Generator: Adobe Illustrator 17.0.0, SVG Export Plug-In . SVG Version: 6.00 Build 0)  -->
<!DOCTYPE svg PUBLIC "-//W3C//DTD SVG 1.1//EN" "http://www.w3.org/Graphics/SVG/1.1/DTD/svg11.dtd">
<svg version="1.1" id="Layer_1" xmlns="http://www.w3.org/2000/svg" xmlns:xlink="http://www.w3.org/1999/xlink" x="0px" y="0px"
	 width="807.339px" height="807.339px" viewBox="0 0 807.339 807.339" enable-background="new 0 0 807.339 807.339"
	 xml:space="preserve">
<g>
	<circle fill="#2C3E50" cx="403.669" cy="403.669" r="403.669"/>
	<circle id="Dalam" fill="#35495E" cx="403.669" cy="403.669" r="381.565"/>
	<g>
		<path fill="#FFFFFF" d="M584.718,565.925c0,0,146.592-138.069,92.442-387.102c0,0,27.09,17.008,30.814,41.406
			S750.344,413.78,584.718,565.925z"/>
		<path fill="#FFFFFF" d="M550.052,628.516c0,0,181.996-98.22,187.774-342.807c0,0,13.609,20.86,17.333,45.258
			C758.883,355.365,743.603,528.37,550.052,628.516z"/>
		<path fill="#FFFFFF" d="M222.621,565.925c0,0-146.592-138.069-92.442-387.102c0,0-27.09,17.008-30.814,41.406
			C95.64,244.627,56.995,413.78,222.621,565.925z"/>
		<path fill="#FFFFFF" d="M257.286,628.516c0,0-181.996-98.22-187.773-342.807c0,0-13.609,20.86-17.333,45.258
			C48.456,355.365,63.735,528.37,257.286,628.516z"/>
	</g>
	<g>
		<path fill="#FFFFFF" d="M345.915,235.027c-3.661,0-6.772-1.281-9.334-3.844c-2.562-2.562-3.843-5.658-3.843-9.29v-30.044
			c0-3.66,1.288-6.77,3.865-9.333c2.577-2.562,5.681-3.844,9.312-3.844c3.66,0,6.764,1.29,9.311,3.866
			c2.548,2.577,3.822,5.681,3.822,9.311v6.281h-8.609v-6.457c0-1.318-0.468-2.445-1.405-3.382s-2.065-1.406-3.383-1.406
			s-2.438,0.469-3.359,1.406c-0.923,0.937-1.384,2.064-1.384,3.382v30.132c0,1.318,0.461,2.438,1.384,3.359
			c0.922,0.923,2.042,1.384,3.359,1.384s2.446-0.461,3.383-1.384c0.937-0.922,1.405-2.042,1.405-3.359v-7.599h8.609v7.686
			c0,3.661-1.289,6.764-3.865,9.312C352.606,233.752,349.517,235.027,345.915,235.027z"/>
		<path fill="#FFFFFF" d="M374.156,234.324h-8.301v-55.036h8.301V234.324z"/>
		<path fill="#FFFFFF" d="M408.546,220.619c0.06,3.837-0.936,7.116-2.986,9.838c-1.347,1.845-3.25,3.149-5.71,3.91
			c-1.318,0.41-2.855,0.615-4.612,0.615c-3.25,0-5.945-0.805-8.082-2.415c-1.787-1.318-3.2-3.111-4.238-5.381
			c-1.04-2.269-1.647-4.868-1.823-7.797l7.906-0.57c0.352,3.209,1.2,5.534,2.547,6.975c0.995,1.09,2.137,1.605,3.427,1.546
			c1.815-0.058,3.264-0.952,4.348-2.682c0.556-0.85,0.835-2.066,0.835-3.649c0-2.286-1.039-4.558-3.118-6.814
			c-1.64-1.553-4.1-3.883-7.379-6.99c-2.753-2.667-4.7-5.056-5.842-7.166c-1.229-2.374-1.845-4.953-1.845-7.737
			c0-5.012,1.684-8.807,5.052-11.386c2.079-1.554,4.656-2.33,7.73-2.33c2.957,0,5.491,0.659,7.599,1.977
			c1.639,1.025,2.965,2.46,3.974,4.305c1.012,1.845,1.619,3.968,1.824,6.368l-7.95,1.449c-0.235-2.254-0.879-4.011-1.932-5.271
			c-0.762-0.907-1.86-1.362-3.294-1.362c-1.524,0-2.68,0.675-3.47,2.021c-0.645,1.084-0.967,2.431-0.967,4.041
			c0,2.519,1.084,5.081,3.251,7.686c0.82,0.996,2.049,2.167,3.689,3.514c1.933,1.611,3.207,2.738,3.821,3.382
			c2.05,2.051,3.631,4.071,4.743,6.062c0.526,0.937,0.952,1.801,1.273,2.591C408.108,217.311,408.518,219.068,408.546,220.619z"/>
		<path fill="#FFFFFF" d="M428.488,235.027c-3.66,0-6.771-1.281-9.332-3.844c-2.563-2.562-3.845-5.658-3.845-9.29v-30.044
			c0-3.66,1.29-6.77,3.867-9.333c2.575-2.562,5.681-3.844,9.31-3.844c3.662,0,6.765,1.29,9.312,3.866
			c2.547,2.577,3.822,5.681,3.822,9.311v6.281h-8.609v-6.457c0-1.318-0.47-2.445-1.406-3.382c-0.938-0.937-2.065-1.406-3.383-1.406
			s-2.437,0.469-3.361,1.406c-0.922,0.937-1.382,2.064-1.382,3.382v30.132c0,1.318,0.46,2.438,1.382,3.359
			c0.924,0.923,2.043,1.384,3.361,1.384s2.445-0.461,3.383-1.384c0.936-0.922,1.406-2.042,1.406-3.359v-7.599h8.609v7.686
			c0,3.661-1.29,6.764-3.867,9.312C435.179,233.752,432.092,235.027,428.488,235.027z"/>
		<path fill="#FFFFFF" d="M461.43,178.585c3.66,0,6.769,1.289,9.332,3.865c2.563,2.577,3.845,5.682,3.845,9.312v30.044
			c0,3.661-1.29,6.771-3.867,9.333c-2.577,2.563-5.681,3.844-9.31,3.844c-3.662,0-6.765-1.289-9.312-3.866
			c-2.549-2.576-3.823-5.681-3.823-9.311v-30.044c0-3.66,1.29-6.771,3.867-9.334C454.738,179.867,457.827,178.585,461.43,178.585z
			 M465.954,191.586c0-1.318-0.462-2.438-1.384-3.361c-0.922-0.922-2.043-1.383-3.361-1.383s-2.445,0.461-3.383,1.383
			c-0.936,0.923-1.404,2.043-1.404,3.361v30.131c0,1.318,0.468,2.439,1.404,3.361c0.938,0.922,2.065,1.384,3.383,1.384
			s2.439-0.462,3.361-1.384c0.922-0.922,1.384-2.043,1.384-3.361V191.586z"/>
		<path fill="#FFFFFF" d="M295.096,309.24c-3.661,0-6.772-1.281-9.334-3.844c-2.562-2.562-3.843-5.658-3.843-9.29v-30.044
			c0-3.66,1.288-6.77,3.865-9.333c2.577-2.562,5.681-3.844,9.312-3.844c3.66,0,6.764,1.29,9.311,3.866
			c2.548,2.577,3.822,5.681,3.822,9.311v6.281h-8.609v-6.457c0-1.318-0.468-2.445-1.405-3.382s-2.065-1.406-3.383-1.406
			s-2.438,0.469-3.359,1.406c-0.923,0.937-1.384,2.064-1.384,3.382v30.132c0,1.318,0.461,2.438,1.384,3.359
			c0.922,0.923,2.042,1.384,3.359,1.384s2.446-0.461,3.383-1.384c0.937-0.922,1.405-2.042,1.405-3.359v-7.599h8.609v7.686
			c0,3.661-1.289,6.764-3.865,9.312C301.787,307.965,298.697,309.24,295.096,309.24z"/>
		<path fill="#FFFFFF" d="M315.036,308.537v-55.08h23.631v8.345h-15.33v15.022h11.201v8.346h-11.201v15.022h15.33v8.345H315.036z"/>
		<path fill="#FFFFFF" d="M357.465,253.5c4.627,0,8.024,1.274,10.191,3.821c1.903,2.226,2.854,5.33,2.854,9.312v7.993
			c0,3.895-1.478,7.189-4.436,9.884l6.149,24.026h-8.978l-5.033-20.731c-0.235,0-0.483,0-0.747,0h-4.788v20.731h-8.301V253.5
			H357.465z M362.428,266.766c0-3.191-1.581-4.788-4.743-4.788h-5.008v17.613h5.008c1.318,0,2.438-0.468,3.361-1.405
			c0.922-0.937,1.383-2.065,1.383-3.383V266.766z"/>
		<path fill="#FFFFFF" d="M385.444,261.846h-8.828V253.5h25.915v8.346h-8.785v46.69h-8.302V261.846z"/>
		<path fill="#FFFFFF" d="M417.507,308.537h-8.302V253.5h8.302V308.537z"/>
		<path fill="#FFFFFF" d="M433.231,308.537h-8.302v-55.08h23.632v8.345h-15.33v15.022h11.2v8.346h-11.2V308.537z"/>
		<path fill="#FFFFFF" d="M462.571,308.537h-8.302V253.5h8.302V308.537z"/>
		<path fill="#FFFFFF" d="M469.993,308.537v-55.08h23.632v8.345h-15.33v15.022h11.2v8.346h-11.2v15.022h15.33v8.345H469.993z"/>
		<path fill="#FFFFFF" d="M525.425,295.36c0,3.631-1.273,6.735-3.82,9.311c-2.547,2.577-5.622,3.866-9.224,3.866h-13.046v-55.08
			h13.046c3.63,0,6.713,1.289,9.246,3.865c2.533,2.577,3.798,5.666,3.798,9.268V295.36z M507.636,300.323h5.008
			c1.318,0,2.431-0.476,3.338-1.428c0.908-0.951,1.362-2.071,1.362-3.359v-28.814c0-1.318-0.462-2.445-1.384-3.382
			s-2.029-1.406-3.316-1.406h-5.008V300.323z"/>
	</g>
	<g>
		<rect x="151.326" y="332.762" fill="#FFFFFF" width="504.686" height="4.114"/>
	</g>
	<g>
		<rect x="213.187" y="508.499" fill="#FFFFFF" width="380.964" height="4.114"/>
	</g>
	<g>
		<path fill="#FFFFFF" d="M232.893,491.653c-5.49,0-10.117-1.88-13.876-5.642c-3.762-3.758-5.641-8.386-5.641-13.876v-97.586
			c0-5.386,1.879-9.961,5.641-13.723c3.759-3.862,8.386-5.794,13.876-5.794h58.552v19.517h-58.552v97.586h58.552v19.518H232.893z"/>
		<path fill="#FFFFFF" d="M330.48,491.653c-5.49,0-10.117-1.88-13.876-5.642c-3.762-3.758-5.641-8.386-5.641-13.876v-97.586
			c0-5.386,1.879-9.961,5.641-13.723c3.759-3.862,8.386-5.794,13.876-5.794h58.552v19.517H330.48v97.586h58.552v19.518H330.48z"/>
		<path fill="#FFFFFF" d="M408.548,491.653V355.031h19.518l48.793,97.587v-97.587h19.518v136.621h-19.518l-48.793-97.587v97.587
			H408.548z"/>
		<path fill="#FFFFFF" d="M515.893,491.653V374.549c0-5.386,1.88-9.961,5.642-13.723c3.76-3.862,8.386-5.794,13.876-5.794h39.034
			c5.387,0,9.961,1.932,13.723,5.794c3.863,3.762,5.793,8.337,5.793,13.723v117.104h-19.516V433.1h-39.034v58.553H515.893z
			 M574.446,413.584v-39.035h-39.034v39.035H574.446z"/>
	</g>
	<g>
		<path fill="#FFFFFF" d="M333.171,566.626c0.044,2.88-0.704,5.345-2.244,7.39c-1.012,1.386-2.442,2.366-4.29,2.937
			c-0.99,0.309-2.145,0.462-3.465,0.462c-2.442,0-4.466-0.605-6.071-1.814c-1.343-0.99-2.404-2.338-3.185-4.043
			c-0.781-1.703-1.237-3.656-1.369-5.855l5.94-0.43c0.263,2.41,0.901,4.158,1.913,5.241c0.748,0.818,1.606,1.205,2.574,1.161
			c1.364-0.044,2.453-0.715,3.267-2.015c0.417-0.639,0.627-1.553,0.627-2.742c0-1.717-0.781-3.423-2.343-5.118
			c-1.232-1.167-3.08-2.919-5.544-5.253c-2.068-2.003-3.53-3.798-4.388-5.383c-0.924-1.784-1.386-3.72-1.386-5.813
			c0-3.764,1.264-6.617,3.794-8.553c1.562-1.167,3.498-1.752,5.808-1.752c2.222,0,4.125,0.496,5.709,1.484
			c1.231,0.771,2.227,1.848,2.986,3.234s1.215,2.983,1.37,4.785l-5.973,1.089c-0.177-1.693-0.66-3.013-1.452-3.959
			c-0.572-0.681-1.397-1.022-2.475-1.022c-1.144,0-2.013,0.506-2.607,1.519c-0.484,0.814-0.725,1.826-0.725,3.035
			c0,1.892,0.814,3.816,2.442,5.775c0.616,0.747,1.54,1.627,2.772,2.639c1.451,1.209,2.408,2.057,2.87,2.541
			c1.54,1.541,2.728,3.057,3.564,4.554c0.396,0.705,0.714,1.354,0.956,1.946C332.842,564.14,333.149,565.459,333.171,566.626z"/>
		<path fill="#FFFFFF" d="M338.351,576.921v-41.379h17.753v6.269h-11.517v11.285h8.414v6.269h-8.414v11.287h11.517v6.269H338.351z"
			/>
		<path fill="#FFFFFF" d="M370.292,577.449c-2.75,0-5.087-0.962-7.012-2.888c-1.924-1.924-2.886-4.25-2.886-6.978v-22.571
			c0-2.75,0.967-5.086,2.904-7.012c1.935-1.924,4.267-2.886,6.995-2.886c2.75,0,5.082,0.968,6.996,2.905
			c1.913,1.936,2.87,4.268,2.87,6.994v4.72h-6.468v-4.851c0-0.99-0.352-1.838-1.056-2.541c-0.704-0.705-1.551-1.057-2.541-1.057
			s-1.831,0.352-2.524,1.057c-0.693,0.703-1.039,1.551-1.039,2.541v22.636c0,0.99,0.346,1.832,1.039,2.525s1.534,1.039,2.524,1.039
			s1.837-0.346,2.541-1.039s1.056-1.535,1.056-2.525v-5.709h6.468v5.775c0,2.75-0.968,5.082-2.904,6.996
			C375.319,576.491,372.998,577.449,370.292,577.449z"/>
		<path fill="#FFFFFF" d="M395.106,577.383c-2.75,0-5.081-0.956-6.995-2.87c-1.914-1.914-2.87-4.234-2.87-6.962v-31.976h6.104v31.91
			c0,0.988,0.352,1.83,1.056,2.523s1.551,1.04,2.541,1.04s1.832-0.347,2.525-1.04s1.039-1.535,1.039-2.523v-31.91h6.5v31.976
			c0,2.77-0.968,5.102-2.904,6.994C400.166,576.437,397.834,577.383,395.106,577.383z"/>
		<path fill="#FFFFFF" d="M420.38,535.574c3.477,0,6.028,0.956,7.657,2.87c1.428,1.673,2.143,4.005,2.143,6.996v6.006
			c0,2.925-1.111,5.401-3.332,7.424l4.62,18.05h-6.745l-3.78-15.575c-0.177,0-0.364,0-0.562,0h-3.596v15.575h-6.237v-41.346H420.38z
			 M424.11,545.539c0-2.396-1.189-3.596-3.565-3.596h-3.76v13.231h3.76c0.99,0,1.832-0.352,2.525-1.057
			c0.693-0.703,1.04-1.551,1.04-2.541V545.539z"/>
		<path fill="#FFFFFF" d="M443.05,576.921h-6.237v-41.346h6.237V576.921z"/>
		<path fill="#FFFFFF" d="M454.698,541.843h-6.633v-6.269h19.468v6.269h-6.598v35.077h-6.237V541.843z"/>
		<path fill="#FFFFFF" d="M480.172,559.596l-8.348-24.054h6.864l4.62,14.848l4.586-14.848h6.898l-8.382,24.054v17.325h-6.237
			V559.596z"/>
	</g>
</g>
</svg>
