<?xml version="1.0" encoding="utf-8"?>
<!-- Generator: Adobe Illustrator 26.0.2, SVG Export Plug-In . SVG Version: 6.00 Build 0)  -->
<svg version="1.1" id="Logotype_Editable_Text" xmlns="http://www.w3.org/2000/svg" xmlns:xlink="http://www.w3.org/1999/xlink"
	 x="0px" y="0px" viewBox="0 0 214.3 178.4" style="enable-background:new 0 0 214.3 178.4;" xml:space="preserve">
<style type="text/css">
	.st0{fill:#FFFFFF;}
	.st1{fill:#757575;}
	.st2{fill:#C8202F;}
</style>
<g>
	<g>
		<g>
			<path class="st0" d="M107.1,0C54.5,0,11.7,42.8,11.7,95.4c0,26.5,10.6,51.1,29.8,69.3l1,1l1.1-1c2.8-2.6,5.7-4.9,8.7-7.1
				c14.6,12.9,33.8,20.8,54.8,20.8s40.2-7.9,54.8-20.8c3,2.2,5.9,4.5,8.6,7.1l1.1,1l1.1-1c19.3-18.2,29.9-42.8,29.9-69.3
				C202.6,42.8,159.8,0,107.1,0L107.1,0z"/>
			<path class="st1" d="M171.6,161.5c-2.4-2.1-4.8-4.1-7.4-6c15.9-15.1,25.9-36.5,25.9-60.1c0-45.8-37.2-83-83-83s-83,37.2-83,83
				c0,23.6,9.9,45,25.8,60.1c-2.5,1.9-5,3.9-7.4,6C24.7,144,14.8,120.6,14.8,95.4c0-50.9,41.4-92.3,92.3-92.3s92.3,41.4,92.3,92.3
				C199.5,120.5,189.6,143.9,171.6,161.5L171.6,161.5L171.6,161.5z M119.1,141.2V158c0,2.4-2,4.4-4.4,4.4H95.1v-21.2L119.1,141.2
				L119.1,141.2z M112.6,138.1h-11.3v-4.4c0-3.7,2.3-6.3,5.6-6.3s5.7,2.6,5.7,6.3V138.1L112.6,138.1z M27.2,95.4
				c0-44.1,35.9-79.9,79.9-79.9S187,51.4,187,95.4c0,23-9.8,43.7-25.3,58.3c-11.9-8.1-25.3-13.4-39.6-15.6h-6.5v-4.4
				c0-5.3-3.8-9.4-8.8-9.4s-8.6,3.9-8.6,9.4v4.4H92c-14.2,2.2-27.7,7.5-39.5,15.6C37,139.1,27.2,118.4,27.2,95.4
				C27.2,95.4,27.2,95.4,27.2,95.4z M107.1,175.3c-20,0-38.2-7.4-52.2-19.5c11.2-7.5,23.8-12.5,37.1-14.6v24.3h22.7
				c4.1,0,7.4-3.3,7.4-7.4v-16.9c13.3,2.1,26,7.1,37.2,14.7C145.3,168,127.1,175.3,107.1,175.3L107.1,175.3L107.1,175.3z M107.1,0
				C54.5,0,11.7,42.8,11.7,95.4c0,26.5,10.6,51.1,29.8,69.3l1,1l1.1-1c2.8-2.6,5.7-4.9,8.7-7.1c14.6,12.9,33.8,20.8,54.8,20.8
				s40.2-7.9,54.8-20.8c3,2.2,5.9,4.5,8.6,7.1l1.1,1l1.1-1c19.3-18.2,29.9-42.8,29.9-69.3C202.6,42.8,159.8,0,107.1,0L107.1,0z"/>
			<path class="st1" d="M107.1,153.6c1.4,0,2.5-1.1,2.5-2.5s-1.1-2.5-2.5-2.5s-2.5,1.1-2.5,2.5S105.7,153.6,107.1,153.6L107.1,153.6
				z"/>
			<path class="st1" d="M171.6,160.3c-0.7,0-1.2-0.5-1.2-1.1s0.5-1.1,1.2-1.1s1.2,0.5,1.2,1.1S172.2,160.3,171.6,160.3 M171.6,158.4
				c-0.5,0-0.9,0.4-0.9,0.8s0.4,0.8,0.9,0.8s1-0.4,1-0.8S172.1,158.4,171.6,158.4 M172,159.3c0,0-0.1,0-0.1,0.1c0,0,0.1,0.1,0.3,0.4
				l0,0c-0.1,0.1-0.2,0.1-0.3,0c-0.2-0.3-0.3-0.3-0.3-0.3h-0.3v-0.1c0-0.1,0.1-0.2,0.2-0.2h0.1c0.1,0,0.2,0,0.2-0.1
				c0,0,0.1-0.1,0.1-0.1s0-0.1-0.3-0.1h-0.4v0.8c0,0.1-0.1,0.2-0.2,0.2H171v-1c0-0.1,0.1-0.2,0.2-0.2h0.5c0.5,0,0.6,0.3,0.6,0.4
				C172.2,159.1,172.1,159.3,172,159.3"/>
			<path class="st2" d="M205.9,60.1H0V110c0,4.6,3.8,8.4,8.4,8.4h205.9V68.4C214.3,63.8,210.5,60.1,205.9,60.1L205.9,60.1
				L205.9,60.1z"/>
		</g>
		<g>
			<path class="st2" d="M83,51.1c-3.5,0-6.3-2.5-6.3-5.7s2.8-5.7,6.3-5.7s6.3,2.5,6.3,5.7S86.5,51.1,83,51.1 M83,42
				c-2.2,0-4,1.5-4,3.4s1.8,3.4,4,3.4s4-1.5,4-3.4S85.2,42,83,42"/>
			<path class="st2" d="M105.4,51.1c-1.3,0-2.3-1-2.3-2.3V44c0-1.1-1-2-2.2-2s-2.2,0.9-2.2,2v7c-1.3,0-2.3-1-2.3-2.3V44
				c0-1.1-1-2-2.2-2s-2.2,0.9-2.2,2v4.7c0,1.3-1,2.3-2.3,2.3v-7c0-2.4,2-4.3,4.4-4.3c1.3,0,2.5,0.5,3.3,1.4c0.8-0.9,2-1.4,3.3-1.4
				c2.5,0,4.5,1.9,4.5,4.3L105.4,51.1L105.4,51.1L105.4,51.1z"/>
			<path class="st2" d="M112.9,51c-0.6,0-1.2,0-1.7-0.2c-1.2-0.3-1.9-1.6-1.6-2.8c0-0.1,0.1-0.3,0.1-0.4l0,0
				c0.6,0.7,1.7,1.1,3.1,1.1c2.1,0,3.7-1.5,3.7-3.3S115,42,112.9,42c-2,0-3.9,1.1-3.9,3.5v7.4c0,1.2-1,2.2-2.3,2.2v-9.6
				c0-3.3,2.6-5.8,6.2-5.8c1.6,0,3.1,0.6,4.2,1.6c1.2,1.1,1.8,2.5,1.8,4.1C118.9,48.6,116.2,51,112.9,51"/>
			<path class="st2" d="M129.2,37.5h-4.9v13.5h-0.1c-1.2,0-2.2-1-2.2-2.3V37.6h-4.9c-1.2,0-2.2-1-2.2-2.3h16.6
				C131.4,36.5,130.4,37.6,129.2,37.5"/>
			<path class="st2" d="M148.7,49.6l-1.2-2.6h-8.1l-1.2,2.7c-0.6,1.1-2.1,1.4-3.2,1.4l6.6-14.5c0.4-0.8,1-1.3,1.8-1.3
				s1.5,0.5,1.8,1.3l6.5,14.3C150.5,51,149.2,50.7,148.7,49.6 M143.7,37.6l-3.2,7.1h6.1l-3.3-7.2L143.7,37.6L143.7,37.6z"/>
			<path class="st2" d="M74.1,39.5c-1.2-1.3-3.1-2.2-5.1-2.2c-3.5,0-6.4,2.6-6.4,5.7s2.9,5.8,6.4,5.8c1.7,0,3.3-0.6,4.5-1.7
				c0.8-0.7,2.1-0.6,2.9,0c-0.6,1-1.4,1.8-2.5,2.4c-1.4,0.9-3.1,1.4-4.9,1.4c-4.8,0-8.7-3.6-8.7-8s3.9-8,8.7-8
				c3.4,0,6.5,1.9,7.9,4.7C76.1,40.4,74.9,40.4,74.1,39.5"/>
			<path class="st2" d="M152.6,50.2c-0.7,0-1.2-0.5-1.2-1.1s0.5-1.1,1.2-1.1s1.2,0.5,1.2,1.1S153.3,50.2,152.6,50.2 M152.6,48.3
				c-0.5,0-0.9,0.4-0.9,0.8s0.4,0.8,0.9,0.8s1-0.4,1-0.8S153.2,48.3,152.6,48.3 M153.1,49.2c0,0-0.1,0-0.1,0c0,0,0.1,0.1,0.3,0.4
				l0,0c-0.1,0.1-0.2,0.1-0.3,0c-0.2-0.3-0.3-0.3-0.3-0.3h-0.3v-0.1c0-0.1,0.1-0.2,0.2-0.2h0.1c0.1,0,0.2,0,0.2,0c0,0,0.1,0,0.1-0.1
				s0-0.1-0.3-0.1h-0.4v0.8c0,0.1-0.1,0.2-0.2,0.2H152v-1c0-0.1,0.1-0.2,0.2-0.2h0.5c0.5,0,0.6,0.3,0.6,0.4
				C153.3,49,153.2,49.1,153.1,49.2"/>
			<path class="st2" d="M132.1,35.3v13.6c0,1.2,1.1,2.2,2.3,2.2V37.5C134.4,36.3,133.4,35.3,132.1,35.3"/>
		</g>
	</g>
	<g>
		<path class="st0" d="M50.5,95.5c0,1.4-0.3,2.7-1,3.7c-0.7,1-1.7,1.8-3,2.4c-1.3,0.6-2.9,0.8-4.7,0.8c-0.9,0-1.7-0.1-2.5-0.2
			s-1.6-0.2-2.3-0.5s-1.4-0.4-2-0.8V97c1,0.4,2.1,0.9,3.4,1.2s2.5,0.6,3.7,0.6c1,0,1.8-0.1,2.4-0.4c0.6-0.3,1.1-0.6,1.4-1.1
			c0.3-0.5,0.4-1,0.4-1.6c0-0.7-0.2-1.3-0.6-1.7c-0.4-0.5-1-0.9-1.7-1.3s-1.7-0.8-2.8-1.3c-0.8-0.3-1.5-0.7-2.2-1.1
			s-1.3-0.9-1.9-1.4c-0.6-0.6-1-1.2-1.4-2c-0.3-0.8-0.5-1.7-0.5-2.7c0-1.4,0.3-2.6,1-3.6s1.6-1.8,2.8-2.3s2.6-0.8,4.2-0.8
			c1.3,0,2.5,0.1,3.6,0.4c1.1,0.3,2.2,0.7,3.4,1.2l-1.4,3.5c-1-0.4-2-0.8-2.9-1S44,81.2,43,81.2c-0.8,0-1.4,0.1-2,0.4s-1,0.6-1.2,1
			s-0.4,0.9-0.4,1.5c0,0.7,0.2,1.2,0.5,1.7s0.9,0.9,1.6,1.3c0.7,0.4,1.6,0.8,2.8,1.3c1.3,0.6,2.4,1.2,3.3,1.8
			c0.9,0.6,1.6,1.3,2.1,2.2S50.5,94.3,50.5,95.5L50.5,95.5z"/>
		<path class="st0" d="M61.3,83.4c1.7,0,3.1,0.3,4.3,1c1.2,0.7,2.1,1.6,2.8,2.9c0.7,1.2,1,2.7,1,4.5v2.2H57.2c0,1.7,0.5,3,1.4,3.9
			c0.9,0.9,2.1,1.4,3.7,1.4c1.2,0,2.3-0.1,3.2-0.4s1.9-0.6,2.9-1v3.4c-0.9,0.4-1.8,0.8-2.8,0.9s-2.1,0.3-3.5,0.3
			c-1.8,0-3.4-0.3-4.8-1s-2.5-1.7-3.3-3.1c-0.8-1.4-1.2-3.2-1.2-5.2s0.4-3.9,1.1-5.3s1.7-2.5,3-3.3C58.1,83.7,59.6,83.4,61.3,83.4
			L61.3,83.4z M61.3,86.5c-1.1,0-2.1,0.4-2.8,1.1s-1.1,1.8-1.3,3.3h7.9c0-0.9-0.1-1.6-0.4-2.3c-0.3-0.7-0.7-1.2-1.3-1.6
			S62.2,86.5,61.3,86.5z"/>
		<path class="st0" d="M80.4,102.5c-1.8,0-3.3-0.3-4.5-1s-2.3-1.7-3-3.1s-1-3.2-1-5.4s0.4-4.1,1.1-5.5s1.8-2.5,3.2-3.1
			c1.3-0.7,2.9-1,4.6-1c1.2,0,2.2,0.1,3.1,0.3c0.9,0.2,1.7,0.5,2.3,0.8l-1.3,3.4c-0.7-0.3-1.4-0.5-2.1-0.7c-0.7-0.2-1.4-0.3-2-0.3
			c-1,0-1.9,0.2-2.5,0.7s-1.2,1.1-1.5,2s-0.5,2-0.5,3.4s0.2,2.4,0.5,3.3c0.3,0.9,0.8,1.6,1.5,2c0.7,0.4,1.5,0.7,2.4,0.7
			c1,0,2-0.1,2.8-0.4s1.5-0.6,2.2-1v3.7c-0.7,0.4-1.5,0.7-2.3,0.9S81.5,102.5,80.4,102.5L80.4,102.5z"/>
		<path class="st0" d="M105.6,83.7v18.4h-3.4l-0.6-2.4h-0.2c-0.4,0.6-0.9,1.2-1.5,1.6c-0.6,0.4-1.3,0.7-2,0.9
			c-0.7,0.2-1.5,0.3-2.2,0.3c-1.4,0-2.5-0.2-3.5-0.7c-1-0.5-1.8-1.2-2.3-2.2s-0.8-2.3-0.8-3.8v-12h4.3v11.2c0,1.4,0.3,2.4,0.8,3.1
			c0.5,0.7,1.4,1,2.6,1s2.1-0.2,2.7-0.7c0.7-0.5,1.1-1.2,1.4-2.1c0.3-0.9,0.4-2.1,0.4-3.4v-9L105.6,83.7L105.6,83.7z"/>
		<path class="st0" d="M119.9,83.4c0.3,0,0.6,0,0.9,0s0.7,0.1,0.9,0.1l-0.4,4c-0.2,0-0.5-0.1-0.8-0.1s-0.6-0.1-0.9-0.1
			c-0.7,0-1.3,0.1-2,0.3c-0.6,0.2-1.2,0.5-1.7,0.9s-0.9,1-1.2,1.6c-0.3,0.7-0.4,1.4-0.4,2.3v9.6h-4.3V83.7h3.3l0.6,3.2h0.2
			c0.4-0.7,0.8-1.2,1.4-1.8c0.5-0.5,1.2-1,1.9-1.3C118.3,83.5,119.1,83.4,119.9,83.4L119.9,83.4z"/>
		<path class="st0" d="M126.6,76.6c0.6,0,1.2,0.2,1.7,0.5c0.5,0.3,0.7,0.9,0.7,1.8s-0.2,1.4-0.7,1.8s-1,0.5-1.7,0.5
			s-1.2-0.2-1.7-0.5c-0.5-0.3-0.7-0.9-0.7-1.8s0.2-1.4,0.7-1.8C125.4,76.8,126,76.6,126.6,76.6z M128.7,83.7v18.4h-4.3V83.7H128.7z"
			/>
		<path class="st0" d="M140.6,99.1c0.5,0,1.1-0.1,1.6-0.2s1-0.2,1.4-0.4v3.2c-0.4,0.2-1,0.4-1.8,0.5c-0.7,0.2-1.5,0.2-2.3,0.2
			c-1,0-2-0.2-2.8-0.5c-0.9-0.3-1.5-1-2-1.8s-0.8-2.1-0.8-3.6V87h-2.5v-1.9l2.7-1.5l1.4-3.9h2.7v4.1h5.2V87h-5.2v9.6
			c0,0.9,0.2,1.5,0.7,1.9S139.9,99.1,140.6,99.1L140.6,99.1z"/>
		<path class="st0" d="M143.8,83.7h4.7l3.7,10.4c0.2,0.4,0.3,0.9,0.4,1.3s0.2,0.8,0.3,1.3c0.1,0.4,0.2,0.9,0.2,1.3h0.1
			c0.1-0.6,0.2-1.2,0.4-1.9s0.4-1.3,0.6-2l3.5-10.4h4.6l-7.9,20.9c-0.4,1.2-1,2.2-1.7,3.1c-0.7,0.9-1.5,1.5-2.4,2
			c-0.9,0.4-2,0.7-3.2,0.7c-0.5,0-1,0-1.4-0.1c-0.4-0.1-0.8-0.1-1.1-0.2v-3.4c0.2,0.1,0.6,0.1,0.9,0.1c0.4,0,0.7,0.1,1.1,0.1
			c0.7,0,1.3-0.1,1.8-0.4c0.5-0.3,0.9-0.7,1.3-1.2c0.4-0.5,0.6-1.1,0.9-1.7l0.5-1.5L143.8,83.7L143.8,83.7z"/>
		<path class="st0" d="M172.9,88.6h6.6v3.2h-6.6v6.6h-3.2v-6.6h-6.5v-3.2h6.5v-6.7h3.2V88.6z"/>
	</g>
</g>
</svg>
